<svg width="70" height="70" viewBox="0 0 70 70" fill="none" xmlns="http://www.w3.org/2000/svg">
<g clip-path="url(#clip0)">
<path d="M68.8333 9.33387H58.3335V1.16737C58.3335 0.523388 57.812 0.000732422 57.1669 0.000732422H45.5004C45.3884 0.000732422 45.2881 0.034565 45.1854 0.0648977L45.1796 0.0462315L12.5136 9.37937L12.5183 9.39687C12.3293 9.45053 12.1496 9.53453 12.0085 9.6757L0.342047 21.3421C0.00838728 21.6758 -0.0919439 22.1774 0.0888856 22.6138C0.269715 23.0489 0.696706 23.3336 1.16803 23.3336H17.501V28.6838L0.343214 45.8416C0.00955394 46.1753 -0.0907773 46.6769 0.0900523 47.1132C0.269715 47.5484 0.696706 47.8331 1.16803 47.8331H36.1673C36.6386 47.8331 37.0656 47.5484 37.2453 47.1132C37.4261 46.6769 37.3258 46.1753 36.9921 45.8416L32.6674 41.5169V29.1668C32.6674 28.5228 32.1459 28.0001 31.5007 28.0001H24.5009C23.8557 28.0001 23.3342 28.5228 23.3342 29.1668V32.1837L19.8343 28.6838V23.3336H44.3338V68.8326C44.3338 69.4766 44.8553 69.9993 45.5004 69.9993H57.1669C57.812 69.9993 58.3335 69.4766 58.3335 68.8326V23.3336H68.8333C69.4784 23.3336 69.9999 22.8109 69.9999 22.1669V10.5005C69.9999 9.85653 69.4784 9.33387 68.8333 9.33387ZM9.33453 21.0003H3.9843L9.33453 15.6501V21.0003ZM11.6678 13.3168L13.3174 11.6672H19.3513L11.6678 19.3507V13.3168ZM23.6761 35.8248C24.0109 36.1596 24.5125 36.2588 24.9477 36.078C25.384 35.8971 25.6675 35.4713 25.6675 35V30.3334H30.3341V41.9999C30.3341 42.309 30.4566 42.6065 30.6759 42.8247L33.351 45.4998H3.9843L18.6677 30.8164L23.6761 35.8248ZM21.0009 21.0003H13.3174L21.0009 13.3168V21.0003ZM32.6674 21.0003H24.9839L32.6674 13.3168V21.0003ZM23.3342 19.3507V11.6672H31.0177L23.3342 19.3507ZM44.3338 21.0003H36.6503L44.3338 13.3168V21.0003ZM35.0007 19.3507V11.6672H42.6842L35.0007 19.3507ZM44.3338 9.33387H21.1631L44.3338 2.71434V9.33387ZM46.6671 2.33402H52.0173L46.6671 7.68424V2.33402ZM46.6671 11.6672H54.3506L46.6671 19.3507V11.6672ZM46.6671 23.3336H54.3506L46.6671 31.0171V23.3336ZM46.6671 35H54.3506L46.6671 42.6835V35ZM46.6671 46.6664H54.3506L46.6671 54.3499V46.6664ZM46.6671 58.3328H54.3506L46.6671 66.0163V58.3328ZM56.0002 67.666H48.3167L56.0002 59.9825V67.666ZM56.0002 55.9996H48.3167L56.0002 48.3161V55.9996ZM56.0002 44.3331H48.3167L56.0002 36.6496V44.3331ZM56.0002 32.6667H48.3167L56.0002 24.9832V32.6667ZM56.0002 21.0003H48.3167L56.0002 13.3168V21.0003ZM56.0002 9.33387H48.3167L55.3166 2.33402H56.0002V9.33387ZM58.3335 11.6672H66.017L58.3335 19.3507V11.6672ZM67.6666 21.0003H59.9831L67.6666 13.3168V21.0003Z" fill="#CB2336"/>
<path d="M36.1679 52.4995H1.16859C0.523442 52.4995 0.00195312 53.0222 0.00195312 53.6662V68.8325C0.00195312 69.4765 0.523442 69.9991 1.16859 69.9991H15.1683H22.1681H36.1679C36.813 69.9991 37.3345 69.4765 37.3345 68.8325V53.6662C37.3345 53.0222 36.813 52.4995 36.1679 52.4995ZM21.0015 67.6659H16.3349V59.4994H21.0015V67.6659ZM35.0012 67.6659H23.3348V58.3327C23.3348 57.6887 22.8133 57.1661 22.1681 57.1661H15.1683C14.5231 57.1661 14.0017 57.6887 14.0017 58.3327V67.6659H2.33524V54.8328H35.0012V67.6659Z" fill="#CB2336"/>
<path d="M63.0003 25.6667H60.667V28.0001H63.0003V25.6667Z" fill="#CB2336"/>
<path d="M63.0003 30.3335H60.667V32.6668H63.0003V30.3335Z" fill="#CB2336"/>
<path d="M63.0003 35H60.667V37.3333H63.0003V35Z" fill="#CB2336"/>
</g>
<defs>
<clipPath id="clip0">
<rect width="70" height="70" fill="white"/>
</clipPath>
</defs>
</svg>
