<svg width="30" height="34" viewBox="0 0 30 34" fill="currentColor" xmlns="http://www.w3.org/2000/svg">
<path d="M29.9968 16.8867C29.9968 21.9141 29.9933 26.9416 30 31.9694C30.0013 32.9922 29.1935 33.7407 28.2192 33.7397C21.5256 33.735 14.832 33.7372 8.13875 33.7372C6.02846 33.7372 3.91785 33.7372 1.80755 33.7372C1.01543 33.7372 0.410259 33.3514 0.118677 32.6267C0.0421135 32.4365 0.0111689 32.2158 0.0108499 32.0088C0.00446956 28.8228 0.00638366 25.6371 0.00638366 22.4511C0.00606465 15.5771 0.012126 8.70242 3.33178e-06 1.82808C-0.00191077 0.738243 0.821152 -0.0238796 1.84073 0.000571807C2.46185 0.0154967 3.08362 0.00374732 3.70538 0.00374732C11.8661 0.00374732 20.0272 0.00406487 28.188 0.00342977C28.8742 0.00342977 29.4082 0.277476 29.7668 0.865263C29.9269 1.12756 29.9968 1.41844 29.9968 1.72519C29.9971 6.7787 29.9968 11.8328 29.9968 16.8867ZM14.9842 12.9039C18.6204 12.9039 22.2565 12.9039 25.8923 12.9036C25.9935 12.9036 26.0981 12.9179 26.1945 12.896C26.3935 12.8503 26.6053 12.8166 26.7811 12.7213C27.378 12.3981 27.6645 11.8817 27.6638 11.2044C27.6619 9.61729 27.6622 8.02985 27.6619 6.44273C27.6619 5.62281 27.6645 4.8029 27.6626 3.98298C27.6613 3.53587 27.5037 3.15036 27.1923 2.82487C26.8293 2.4454 26.3702 2.32727 25.8652 2.32727C20.6123 2.32727 15.3594 2.32727 10.1064 2.32727C8.17672 2.32727 6.24699 2.32632 4.31725 2.32822C4.14786 2.32822 3.97814 2.34505 3.80874 2.35362C3.02396 2.39332 2.34414 3.11384 2.34254 3.93122C2.33776 6.39192 2.33999 8.85231 2.3419 11.313C2.34222 11.5588 2.39805 11.797 2.51736 12.0119C2.85456 12.6204 3.36722 12.9103 4.07576 12.9087C7.71191 12.8995 11.3481 12.9043 14.9842 12.9039ZM27.6632 23.333C27.6632 21.2006 27.6619 19.0686 27.6645 16.9362C27.6651 16.525 27.5563 16.1522 27.2957 15.8333C26.9607 15.4237 26.5167 15.2265 25.9893 15.2252C24.7295 15.2221 23.4697 15.2198 22.2099 15.2284C22.0016 15.2297 21.7866 15.2637 21.5866 15.3224C20.9265 15.5161 20.4764 16.1515 20.4703 16.8216C20.4573 18.3293 20.4665 19.8373 20.464 21.3454C20.4636 21.4423 20.425 21.5391 20.4273 21.6353C20.4324 21.8595 20.4633 22.0834 20.4633 22.3076C20.4665 24.8102 20.463 27.3128 20.4719 29.8154C20.4726 30.0098 20.5255 30.2156 20.6018 30.3959C20.8937 31.085 21.4472 31.4045 22.1796 31.4105C23.434 31.4213 24.6884 31.4172 25.9431 31.4111C26.3192 31.4092 26.6778 31.3311 26.9869 31.0933C27.453 30.7347 27.6661 30.2641 27.6648 29.6805C27.661 27.5646 27.6635 25.4488 27.6632 23.333ZM18.5773 18.805C18.5773 18.1597 18.5773 17.5145 18.5773 16.8689C18.5773 16.8584 18.5767 16.8476 18.5773 16.8371C18.6146 16.021 17.8917 15.2351 16.9934 15.2275C15.665 15.216 14.3363 15.2138 13.0079 15.2294C12.403 15.2364 11.9417 15.531 11.6234 16.0467C11.4403 16.343 11.4017 16.6723 11.3997 17.0057C11.3937 18.1324 11.3969 19.2591 11.3991 20.3858C11.3994 20.5652 11.4128 20.7446 11.4243 20.9234C11.4757 21.7211 12.1877 22.3816 13.0401 22.3854C14.2996 22.3908 15.5591 22.3889 16.8186 22.3844C16.986 22.3838 17.1548 22.3587 17.3207 22.3317C17.9868 22.2234 18.5958 21.5121 18.5802 20.8046C18.5658 20.1381 18.5773 19.4715 18.5773 18.805ZM18.5763 27.8244V27.8244C18.5763 27.1629 18.577 26.5018 18.577 25.8403C18.577 25.8245 18.5767 25.8086 18.5763 25.7927C18.5617 24.9833 17.8627 24.2748 17.0489 24.2697C15.6829 24.2612 14.3168 24.2665 12.9508 24.2678C12.5546 24.2681 12.2209 24.4288 11.9322 24.6876C11.5334 25.0455 11.3975 25.5107 11.3972 26.0274C11.3962 27.0855 11.395 28.1435 11.3981 29.2019C11.3988 29.4499 11.4128 29.6983 11.4265 29.9459C11.454 30.4337 11.7006 30.8005 12.077 31.0923C12.389 31.334 12.7543 31.4111 13.1381 31.4124C14.2913 31.4159 15.4449 31.4149 16.5981 31.4124C16.7784 31.4121 16.9583 31.3962 17.1385 31.3864C17.9048 31.3444 18.6006 30.6011 18.5795 29.8084C18.5626 29.1476 18.5763 28.4858 18.5763 27.8244ZM9.53732 18.8012C9.53732 18.1978 9.54083 17.5945 9.53477 16.9911C9.53317 16.8295 9.51467 16.6653 9.48213 16.5069C9.33124 15.7708 8.67598 15.23 7.91448 15.2262C6.59599 15.2195 5.27717 15.217 3.95868 15.2316C3.73313 15.2341 3.49196 15.2954 3.28715 15.3907C2.64784 15.6882 2.34701 16.2179 2.34127 16.9121C2.33457 17.7364 2.33967 18.5611 2.33967 19.3855C2.33967 19.8459 2.33425 20.3064 2.34158 20.7668C2.35594 21.6798 3.08872 22.3819 3.99728 22.3854C5.29983 22.3908 6.60269 22.3892 7.90523 22.3851C8.28869 22.3838 8.63482 22.2549 8.92832 22.0103C9.33379 21.6728 9.53349 21.2317 9.53636 20.7062C9.53987 20.0714 9.537 19.4363 9.53732 18.8012ZM9.53732 27.8438C9.53732 27.2353 9.54083 26.6269 9.53477 26.0185C9.53317 25.8568 9.50765 25.6943 9.48309 25.5339C9.38228 24.8813 8.68459 24.2443 7.92725 24.2643C7.42448 24.2777 6.92075 24.2688 6.41766 24.2685C5.60449 24.2685 4.79067 24.284 3.97814 24.2621C3.13434 24.2392 2.34318 24.9655 2.34127 25.8753C2.33871 27.1817 2.33265 28.4884 2.34765 29.7948C2.3502 30.0244 2.40985 30.2718 2.51003 30.4788C2.82202 31.1237 3.37233 31.4108 4.07895 31.4127C5.32279 31.4159 6.56664 31.4172 7.81049 31.4108C8.11323 31.4092 8.41183 31.3638 8.68268 31.2054C9.26648 30.8637 9.53509 30.3486 9.537 29.6849C9.5386 29.0714 9.53732 28.4576 9.53732 27.8438ZM26.1233 24.9375C26.6347 24.9334 26.9528 24.3694 26.6998 23.9344C26.5422 23.6632 26.2866 23.58 26.0008 23.5787C24.7046 23.5733 23.4082 23.5727 22.112 23.5813C21.9646 23.5822 21.8032 23.6254 21.6737 23.6956C21.4086 23.8391 21.2829 24.1672 21.3601 24.4288C21.4507 24.7368 21.7094 24.9375 22.0275 24.9385C22.7022 24.9404 23.3769 24.9391 24.0516 24.9391C24.7423 24.9391 25.433 24.9433 26.1233 24.9375ZM22.0278 21.7173C21.934 21.7176 21.8325 21.7242 21.7483 21.7601C21.4465 21.8894 21.287 22.2056 21.3537 22.5121C21.4191 22.8128 21.6829 23.0364 22.0064 23.0373C23.3775 23.0418 24.749 23.0427 26.1201 23.0373C26.5186 23.0357 26.7891 22.7394 26.7827 22.3425C26.777 21.9741 26.5023 21.7169 26.1096 21.7163C25.4295 21.715 24.749 21.716 24.0688 21.716C23.3887 21.716 22.7082 21.7141 22.0278 21.7173ZM12.947 18.1362C12.6688 18.1369 12.3948 18.3274 12.3201 18.5659C12.2203 18.8856 12.3083 19.1619 12.5584 19.3496C12.7243 19.4744 12.9157 19.4728 13.1049 19.4734C14.3423 19.4763 15.5798 19.4757 16.8173 19.4741C16.9391 19.4741 17.061 19.4649 17.1822 19.4522C17.4872 19.4207 17.7412 19.1009 17.7223 18.7888C17.6968 18.3674 17.3724 18.1264 17.0096 18.1324C16.3461 18.1435 15.6819 18.1356 15.018 18.1356C14.3277 18.1359 13.6373 18.1346 12.947 18.1362ZM15.0018 28.5017C15.687 28.5017 16.3726 28.5087 17.0578 28.4992C17.5041 28.4932 17.7533 28.1337 17.715 27.7847C17.6687 27.3652 17.3937 27.155 16.9612 27.1544C16.3078 27.1537 15.6541 27.1534 15.0008 27.1534C14.3261 27.1534 13.651 27.1477 12.9766 27.1566C12.4742 27.1632 12.2381 27.5532 12.2745 27.8857C12.3185 28.2861 12.6008 28.5017 13.0092 28.502C13.6734 28.5024 14.3376 28.5017 15.0018 28.5017ZM15.6723 26.049C15.6739 25.6993 15.3715 25.385 15.0222 25.3767C14.6499 25.3681 14.3321 25.6669 14.3248 26.0324C14.3178 26.3967 14.6094 26.6863 14.9893 26.6926C15.3689 26.7434 15.6711 26.3589 15.6723 26.049ZM15.6714 29.6265C15.6758 29.2661 15.3737 28.9619 15.0094 28.9596C14.6333 28.9574 14.3235 29.2565 14.3251 29.6211C14.3267 29.9821 14.6295 30.28 14.9954 30.281C15.3594 30.2816 15.6669 29.9841 15.6714 29.6265ZM6.59025 16.8457C6.58993 16.4005 6.49773 16.2744 6.07248 16.1388C5.77229 16.0432 5.44019 16.2001 5.35757 16.5066C5.30302 16.7082 5.2877 16.9229 5.27749 17.1328C5.26441 17.402 5.26633 17.6726 5.27749 17.9419C5.28387 18.0988 5.22454 18.14 5.07524 18.1375C4.67679 18.1315 4.27833 18.1375 3.87988 18.1423C3.31459 18.1489 3.05937 18.7951 3.32926 19.1857C3.47601 19.3982 3.6856 19.4972 3.93794 19.5011C4.32587 19.5068 4.71411 19.5065 5.10203 19.5004C5.23475 19.4985 5.27909 19.5474 5.27686 19.6767C5.27079 20.0152 5.27079 20.354 5.27717 20.6925C5.27941 20.8119 5.29727 20.9335 5.32662 21.0491C5.40638 21.3651 5.71646 21.5543 6.06164 21.508C6.35098 21.4689 6.58865 21.1914 6.59025 20.8846C6.59216 20.4826 6.59695 20.0803 6.58801 19.6783C6.58482 19.5341 6.63746 19.4979 6.77272 19.5004C7.15012 19.5071 7.52752 19.5052 7.90491 19.5001C7.99296 19.4988 8.08356 19.4817 8.1681 19.456C8.52125 19.3483 8.71426 19.0495 8.65205 18.6888C8.60005 18.3877 8.34165 18.1248 7.96329 18.1327C7.55942 18.141 7.15523 18.1305 6.75135 18.1369C6.62502 18.1388 6.58355 18.0965 6.58865 17.9717C6.59758 17.7606 6.5912 17.5484 6.5912 17.337C6.59025 17.1737 6.59057 17.0099 6.59025 16.8457ZM6.98838 27.718C7.27677 27.4306 7.56357 27.1417 7.85515 26.8574C8.1027 26.6158 8.11802 26.23 7.9215 25.9807C7.66725 25.6584 7.22764 25.6244 6.93096 25.9102C6.62342 26.2065 6.32195 26.5085 6.02016 26.8108C5.9688 26.8622 5.93435 26.8975 5.86672 26.8295C5.62076 26.5818 5.36841 26.3405 5.12245 26.0928C4.95784 25.927 4.80056 25.7498 4.54854 25.7251C4.25505 25.6962 4.00717 25.8422 3.87829 26.1087C3.74845 26.377 3.79566 26.619 4.02791 26.8571C4.31534 27.1521 4.60309 27.4465 4.89436 27.738C4.96358 27.8072 4.97921 27.8523 4.89786 27.9305C4.60118 28.215 4.31151 28.5071 4.02184 28.7986C3.74462 29.0778 3.74398 29.4715 4.0161 29.7468C4.26717 30.0006 4.67391 30.0025 4.94667 29.7484C5.04334 29.6582 5.13489 29.563 5.229 29.4699C5.46061 29.241 5.69253 29.012 5.92797 28.7799C5.9637 28.8107 5.98412 28.8266 6.0023 28.8447C6.31525 29.1527 6.62279 29.4661 6.94212 29.7675C7.15682 29.9704 7.48286 29.9945 7.72276 29.852C8.09537 29.6306 8.17863 29.1289 7.85802 28.812C7.53454 28.4922 7.20946 28.1737 6.87385 27.8438C6.9249 27.7879 6.9552 27.7514 6.98838 27.718Z" fill="inherit"/>
</svg>
