<svg width="60" height="60" viewBox="0 0 60 60" fill="none" xmlns="http://www.w3.org/2000/svg">
<g clip-path="url(#clip0)">
<path d="M56.9999 11.0006H46.0004C46.0004 9.34387 44.6572 8.00077 43.0005 8.00077H38.0007V7.00085C38.0007 5.34409 36.6576 4.00099 35.0008 4.00099H23.6194L22.4485 1.65905C21.943 0.640531 20.9028 -0.0023314 19.7657 0.0011132H15.2379C14.1008 -0.00242982 13.0605 0.640531 12.555 1.65905L11.384 4.00099H7.00221C3.13845 4.00591 0.007496 7.13686 0.00257513 11.0006V17.0003C0.00680707 20.77 2.99574 23.8593 6.76325 23.988L2.16342 45.1319C0.729091 45.5453 -0.18117 46.9527 0.030132 48.4304C0.241434 49.9081 1.50964 51.004 3.00243 50.9987H18.0017C19.4219 50.996 20.6456 49.9979 20.9336 48.6072C21.2215 47.2165 20.4949 45.8145 19.1927 45.248L22.5076 29.9997H27.6843C28.2819 30.001 28.8479 29.7319 29.2242 29.2678C29.6117 28.7895 29.7621 28.1617 29.6333 27.5598C29.1753 25.3659 29.9782 24.343 30.3483 24H35.001C36.6578 24 38.0009 22.6569 38.0009 21.0001V20.0002H43.0007C44.6574 20.0002 46.0005 18.6571 46.0005 17.0003H57.0001C58.6568 17.0003 59.9999 15.6572 59.9999 14.0005C59.9999 12.3437 58.6566 11.0006 56.9999 11.0006ZM14.3438 2.55406C14.5118 2.21422 14.8587 1.99967 15.2378 2.00105H19.7656C20.1447 1.99957 20.4915 2.21412 20.6595 2.55406L21.3834 4.00099H13.6198L14.3438 2.55406ZM8.80807 24H21.7645L17.2017 44.999H4.24328L8.80807 24ZM18.0017 48.9989H3.00233C2.45011 48.9989 2.00241 48.5512 2.00241 47.9989C2.00241 47.4467 2.45011 46.999 3.00233 46.999H17.8257C17.884 47.0101 17.9433 47.0165 18.0026 47.018C18.0196 47.018 18.0346 47.01 18.0516 47.0091C18.5626 47.0716 18.9425 47.5121 18.9296 48.0267C18.9167 48.5412 18.5152 48.9619 18.0017 48.9989ZM27.6842 27.9998H22.9425L23.8114 24.0001H27.9672C27.446 25.2684 27.3468 26.6707 27.6842 27.9998ZM36.0009 21.0001C36.0009 21.5523 35.5532 22 35.0009 22H7.00221C4.24229 21.9967 2.00576 19.7602 2.00241 17.0002H5.00227C5.55449 17.0002 6.00219 16.5525 6.00219 16.0003C6.00219 15.4481 5.55449 15.0004 5.00227 15.0004H2.00241V13.0005H5.00227C5.55449 13.0005 6.00219 12.5528 6.00219 12.0005C6.00219 11.4483 5.55449 11.0006 5.00227 11.0006H2.00241C2.00576 8.24071 4.24229 6.00417 7.00221 6.00083H24.0014V10.0006C24.0014 10.5528 24.4491 11.0005 25.0014 11.0005C25.5536 11.0005 26.0013 10.5528 26.0013 10.0006V6.00083H28.0012V10.0006C28.0012 10.5528 28.4489 11.0005 29.0011 11.0005C29.5533 11.0005 30.001 10.5528 30.001 10.0006V6.00083H32.001V10.0006C32.001 10.5528 32.4487 11.0005 33.0009 11.0005C33.5531 11.0005 34.0008 10.5528 34.0008 10.0006V6.00083H35.0007C35.553 6.00083 36.0007 6.44853 36.0007 7.00075V21.0001H36.0009ZM44.0004 17.0003C44.0004 17.5526 43.5527 18.0003 43.0005 18.0003H38.0007V10.0006H43.0005C43.5527 10.0006 44.0004 10.4483 44.0004 11.0005V17.0003ZM56.9999 15.0004H46.0004V13.0005H56.9999C57.5521 13.0005 57.9998 13.4482 57.9998 14.0004C57.9998 14.5527 57.5521 15.0004 56.9999 15.0004Z" fill="white"/>
<path d="M41.0004 14.0008C41.5526 14.0008 42.0003 13.5531 42.0003 13.0009C42.0003 12.4487 41.5526 12.001 41.0004 12.001C40.4482 12.001 40.0005 12.4487 40.0005 13.0009C40.0005 13.5531 40.4482 14.0008 41.0004 14.0008Z" fill="white"/>
<path d="M59.1449 37.5836C59.7773 36.6091 59.8105 35.3625 59.2309 34.3557L57.658 31.6058C57.1063 30.6286 56.0533 30.0433 54.9321 30.0909L52.7922 30.1909L48.2505 27.544L47.2745 25.6441C46.7693 24.6389 45.7416 24.0033 44.6166 24.0001H41.3848C40.2602 24.0029 39.2327 24.6376 38.7269 25.642L37.7509 27.542L33.2092 30.1868L31.0693 30.0868C29.9465 30.0327 28.8902 30.6198 28.3434 31.6018L26.7705 34.3507C26.1919 35.3581 26.2251 36.6044 26.8565 37.5795L28.0015 39.3534V44.6451L26.8565 46.415C26.2241 47.3895 26.1909 48.6361 26.7705 49.6429L28.3434 52.3928C28.8975 53.3675 29.949 53.9518 31.0693 53.9078L33.2092 53.8078L37.7509 56.4526L38.7269 58.3526C39.2316 59.3586 40.2593 59.9951 41.3848 59.9985H44.6166C45.7412 59.9957 46.7687 59.361 47.2745 58.3566L48.2505 56.4567L52.7922 53.8118L54.9321 53.9118C56.0524 53.9559 57.1039 53.3716 57.658 52.3969L59.2309 49.648C59.8095 48.6406 59.7763 47.3942 59.1449 46.4191L57.9999 44.6452V39.3535L59.1449 37.5836ZM56.16 45.4832L57.4649 47.4991C57.6867 47.847 57.6982 48.289 57.4949 48.648L55.922 51.3989C55.7447 51.7275 55.3951 51.9256 55.0221 51.9089L52.5902 51.7989C52.398 51.7901 52.2074 51.837 52.0412 51.9339L46.9914 54.8748C46.8261 54.971 46.6917 55.1126 46.6044 55.2827L45.5005 57.4447C45.3351 57.7801 44.9954 57.9942 44.6215 57.9987H41.3847C41.0108 57.9942 40.6711 57.7801 40.5057 57.4447L39.4008 55.2818C39.3135 55.1116 39.1791 54.97 39.0138 54.8738L33.964 51.9329C33.8122 51.8444 33.6397 51.7976 33.4641 51.7969H33.411L30.9781 51.9089C30.6051 51.9259 30.2553 51.7277 30.0782 51.3989L28.5063 48.649C28.3031 48.2903 28.3147 47.8487 28.5363 47.5011L29.8362 45.4831C29.9407 45.3213 29.9962 45.1328 29.9962 44.9402V39.0585C29.9963 38.8659 29.9407 38.6773 29.8362 38.5155L28.5363 36.4975C28.3145 36.1496 28.303 35.7076 28.5063 35.3486L30.0792 32.5987C30.2551 32.2687 30.6057 32.07 30.9791 32.0887L33.412 32.2007C33.6044 32.2124 33.7958 32.1653 33.961 32.0657L39.0108 29.1248C39.1761 29.0287 39.3104 28.887 39.3977 28.7169L40.5067 26.554C40.6718 26.2188 41.0111 26.0048 41.3847 26H44.6165C44.9904 26.0044 45.3301 26.2185 45.4955 26.554L46.6004 28.7169C46.6877 28.887 46.822 29.0287 46.9874 29.1248L52.0372 32.0657C52.202 32.1658 52.3936 32.2129 52.5861 32.2007L55.019 32.0887C55.3923 32.0707 55.7426 32.2692 55.9189 32.5987L57.4999 35.3496C57.7031 35.7083 57.6915 36.1499 57.4699 36.4975L56.16 38.5155C56.0554 38.6773 55.9999 38.8659 55.9999 39.0585V44.9402C55.9999 45.1329 56.0554 45.3214 56.16 45.4832Z" fill="white"/>
<path d="M43.0002 31.9996C37.4776 31.9996 33.0007 36.4765 33.0007 41.9991C33.0007 47.5217 37.4776 51.9986 43.0002 51.9986C48.5228 51.9986 52.9997 47.5217 52.9997 41.9991C52.9937 36.4791 48.5203 32.0057 43.0002 31.9996ZM43.0002 49.9988C38.5822 49.9988 35.0006 46.4172 35.0006 41.9991C35.0006 37.5811 38.5822 33.9995 43.0002 33.9995C47.4183 33.9995 50.9999 37.5811 50.9999 41.9991C50.9949 46.4152 47.4162 49.9938 43.0002 49.9988Z" fill="white"/>
</g>
<defs>
<clipPath id="clip0">
<rect width="60" height="60" fill="white"/>
</clipPath>
</defs>
</svg>
