<svg width="60" height="60" viewBox="0 0 60 60" fill="none" xmlns="http://www.w3.org/2000/svg">
<g clip-path="url(#clip0)">
<path d="M55.6406 17.1036L49.9431 18.9124V17.9482C49.9411 17.5971 49.8454 17.2529 49.6659 16.9511C49.8454 16.6492 49.9411 16.305 49.9431 15.9539V9.97125C49.9431 8.86984 49.0502 7.97696 47.9488 7.97696H33.989C33.6379 7.97895 33.2937 8.07464 32.9919 8.25413C32.6901 8.07464 32.3459 7.97895 31.9947 7.97696H26.012V1.99429C26.0121 0.892881 25.1192 0 24.0178 0H10.0581C9.70695 0.00199549 9.36273 0.0976791 9.06092 0.277173C8.7592 0.0976791 8.41498 0.00199549 8.06387 0H2.0811C0.979695 0 0.0869141 0.892881 0.0869141 1.99429V7.97696C0.0889095 8.32806 0.184593 8.67229 0.364087 8.9741C0.184593 9.27592 0.0889095 9.62014 0.0869141 9.97125V15.9539C0.0889095 16.305 0.184593 16.6492 0.364087 16.9511C0.184593 17.2529 0.0889095 17.5971 0.0869141 17.9482V23.931C0.0889095 24.2821 0.184593 24.6263 0.364087 24.9281C0.184593 25.2299 0.0889095 25.5742 0.0869141 25.9253V31.908C0.0869141 33.0094 0.979795 33.9023 2.0812 33.9023H16.0409C16.392 33.9003 16.7363 33.8046 17.0381 33.6251C17.3399 33.8046 17.6841 33.9003 18.0352 33.9023H28.4701C29.5136 36.0536 30.7888 38.0845 32.2731 39.9588L30.1792 42.0528C29.4562 41.7954 28.6497 41.9758 28.1051 42.5164L18.0341 52.5873C16.477 54.1447 16.477 56.6695 18.0341 58.227L18.6394 58.8322C20.1968 60.3893 22.7216 60.3893 24.2791 58.8322L34.35 48.7613C34.8908 48.2167 35.0711 47.4103 34.8137 46.6873L36.9076 44.5933C39.9771 47.0045 43.4384 48.8697 47.1401 50.1075C47.97 50.3768 48.8732 50.3033 49.6487 49.9036C50.4243 49.5038 51.008 48.8109 51.2701 47.9787L59.7656 21.2209C60.1279 20.0532 59.8129 18.7809 58.9477 17.9172C58.0824 17.0534 56.8096 16.7405 55.6426 17.1048L55.6406 17.1036ZM41.966 21.4451V17.9482H47.9488V19.5436L41.966 21.4451ZM18.0351 23.931H10.0582V17.9482H24.0179V23.931H18.0351ZM2.0811 17.9482H8.06387V23.931H2.0811V17.9482ZM2.0811 9.97125H16.0408V15.9539H2.0811V9.97125ZM34.1346 23.931H26.0639C26.0459 23.931 26.0309 23.921 26.012 23.921V17.9482H39.9718V22.0783L34.1346 23.931ZM47.9488 9.97125V15.9539H33.989V9.97125H47.9488ZM31.9947 9.97125V15.9539H18.0351V9.97125H31.9947ZM24.0178 1.99429V7.97696H10.0581V1.99429H24.0178ZM2.0811 1.99429H8.06387V7.97696H2.0811V1.99429ZM2.0811 31.9079V25.9252H16.0408V31.9079H2.0811ZM18.0351 31.9079V25.9252H28.1839C26.8772 26.7025 26.2852 28.2825 26.759 29.7272C26.9584 30.3254 27.2236 31.0663 27.5687 31.9078H18.0351V31.9079ZM40.8941 34.1584C41.2835 33.7692 41.9147 33.7692 42.304 34.1584L42.7028 34.5573C43.092 34.9468 43.092 35.5779 42.7028 35.9673L33.5373 45.1338L31.7235 43.32L40.8941 34.1584ZM22.8641 57.4262C22.0752 58.1798 20.8331 58.1798 20.0443 57.4262L19.439 56.821C18.6605 56.0422 18.6605 54.7799 19.439 54.0012L29.51 43.9302L32.9341 47.3544L22.8641 57.4262ZM57.8631 20.6215L49.3667 47.3763C49.2638 47.7047 49.0326 47.9777 48.7255 48.133C48.4279 48.2882 48.0802 48.3165 47.7613 48.2119C44.3555 47.0742 41.1653 45.3717 38.3245 43.1754L44.1168 37.383C45.2846 36.2149 45.2846 34.3214 44.1168 33.1532L43.7179 32.7543C42.5498 31.5866 40.6563 31.5866 39.4881 32.7543L33.6898 38.5406C31.4932 35.6998 29.7899 32.5097 28.6513 29.1039C28.5459 28.7851 28.5744 28.4372 28.7301 28.1397C28.8861 27.832 29.1598 27.6004 29.4889 27.4975L49.3197 21.2026H49.3356L56.2367 19.009C56.6945 18.8684 57.1926 18.9916 57.5319 19.3296C57.8712 19.6675 57.9966 20.165 57.858 20.6234L57.8631 20.6215Z" fill="white"/>
</g>
<defs>
<clipPath id="clip0">
<rect width="60" height="60" fill="white"/>
</clipPath>
</defs>
</svg>
