<svg width="70" height="70" viewBox="0 0 70 70" fill="none" xmlns="http://www.w3.org/2000/svg">
<path d="M68.8333 39.666H50.1667V31.4993C50.1667 30.8542 49.6452 30.3327 49 30.3327H47.8333V18.666H52.5V16.3327H46.6667H36.1667V10.3769L45.6283 9.32568C46.2198 9.26035 46.6667 8.76102 46.6667 8.16602V1.16602C46.6667 0.834685 46.5255 0.517351 46.2782 0.296851C46.0308 0.0763513 45.7018 -0.0251487 45.3717 0.00635129L34.8717 1.17302C34.2802 1.23835 33.8333 1.73768 33.8333 2.33268V9.33268V16.3327H23.3333H18.6667V18.666H22.1667V30.3327H21C20.3548 30.3327 19.8333 30.8542 19.8333 31.4993V39.666H1.16667C0.5215 39.666 0 40.1875 0 40.8327V68.8327C0 69.4779 0.5215 69.9994 1.16667 69.9994H21H32.6667H37.3333H49H68.8333C69.4785 69.9994 70 69.4779 70 68.8327V40.8327C70 40.1875 69.4785 39.666 68.8333 39.666ZM36.1667 3.37802L44.3333 2.47035V7.12068L36.1667 8.02835V3.37802ZM19.8333 67.666H15.1667V54.8327H12.8333V67.666H8.16667V54.8327H5.83333V67.666H2.33333V41.9994H19.8333V67.666ZM24.5 18.666H45.5V30.3327H24.5V18.666ZM36.1667 67.666H33.8333V52.4994H36.1667V67.666ZM47.8333 40.8327V67.666H44.3333V41.9994H42V67.666H38.5V51.3327C38.5 50.6875 37.9785 50.166 37.3333 50.166H32.6667C32.0215 50.166 31.5 50.6875 31.5 51.3327V67.666H28V41.9994H25.6667V67.666H22.1667V40.8327V32.666H23.3333H46.6667H47.8333V40.8327ZM67.6667 67.666H64.1667V54.8327H61.8333V67.666H56V54.8327H53.6667V67.666H50.1667V41.9994H67.6667V67.666Z" fill="#CB2336"/>
<path d="M37.3333 34.9993H32.6667C32.0215 34.9993 31.5 35.5208 31.5 36.1659V45.4993C31.5 46.1444 32.0215 46.6659 32.6667 46.6659H37.3333C37.9785 46.6659 38.5 46.1444 38.5 45.4993V36.1659C38.5 35.5208 37.9785 34.9993 37.3333 34.9993ZM36.1667 44.3326H33.8333V37.3326H36.1667V44.3326Z" fill="#CB2336"/>
<path d="M56.0003 44.3325H53.667V50.1659H56.0003V44.3325Z" fill="#CB2336"/>
<path d="M64.1663 44.3325H61.833V50.1659H64.1663V44.3325Z" fill="#CB2336"/>
<path d="M8.16634 44.3325H5.83301V50.1659H8.16634V44.3325Z" fill="#CB2336"/>
<path d="M15.1663 44.3325H12.833V50.1659H15.1663V44.3325Z" fill="#CB2336"/>
<path d="M37.333 20.9993H31.4997C30.8545 20.9993 30.333 21.5208 30.333 22.1659V26.8326C30.333 27.4778 30.8545 27.9993 31.4997 27.9993H37.333C37.9782 27.9993 38.4997 27.4778 38.4997 26.8326V22.1659C38.4997 21.5208 37.9782 20.9993 37.333 20.9993ZM36.1663 25.6659H32.6663V23.3326H36.1663V25.6659Z" fill="#CB2336"/>
</svg>
