<svg width="70" height="70" viewBox="0 0 70 70" fill="none" xmlns="http://www.w3.org/2000/svg">
<path d="M65.0343 15.435L35.5031 0.122534C35.1875 -0.0408447 34.8124 -0.0408447 34.4968 0.122534L4.96562 15.435C4.60277 15.623 4.375 15.9976 4.375 16.4063V68.9062C4.375 69.5102 4.86473 69.9999 5.46875 69.9999H64.5311C65.1352 69.9999 65.6249 69.5102 65.6249 68.9062V16.4063C65.625 15.9976 65.3971 15.623 65.0343 15.435ZM42.6562 66.7187H32.8124V56.8749H33.9062V60.1562C33.9062 60.7602 34.3959 61.2499 34.9999 61.2499H40.4687C41.0727 61.2499 41.5624 60.7602 41.5624 60.1562V56.8749H42.6562V66.7187ZM36.0937 59.0624V56.8749H39.3749V59.0624H36.0937ZM54.6874 66.7187H44.8437V56.8749H45.9374V60.1562C45.9374 60.7602 46.4271 61.2499 47.0312 61.2499H52.4999C53.1039 61.2499 53.5937 60.7602 53.5937 60.1562V56.8749H54.6874V66.7187ZM48.1249 59.0624V56.8749H51.4062V59.0624H48.1249ZM54.6874 54.6874H44.8437V44.8437H45.9374V48.125C45.9374 48.729 46.4271 49.2187 47.0312 49.2187H52.4999C53.1039 49.2187 53.5937 48.729 53.5937 48.125V44.8437H54.6874V54.6874ZM48.1249 47.0312V44.8437H51.4062V47.0312H48.1249ZM55.7812 42.6562H43.7499C43.1459 42.6562 42.6562 43.1459 42.6562 43.75V54.6874H31.7187C31.1147 54.6874 30.625 55.1772 30.625 55.7812V67.8124H14.2187V31.7187H55.7812V42.6562ZM56.8749 29.5312H13.125V27.3437H56.8749V29.5312ZM63.4374 67.8124H57.9687V31.7187C58.5727 31.7187 59.0624 31.229 59.0624 30.625V26.25C59.0624 25.646 58.5727 25.1562 57.9687 25.1562H12.0312C11.4272 25.1562 10.9375 25.646 10.9375 26.25V30.625C10.9375 31.229 11.4272 31.7187 12.0312 31.7187V67.8124H6.5625V17.0713L34.9999 2.32534L63.4374 17.0713V67.8124Z" fill="#CB2336"/>
<path d="M42.6562 10.9375H27.3437C26.7397 10.9375 26.25 11.4272 26.25 12.0312C26.25 12.6353 26.7397 13.125 27.3437 13.125H42.6562C43.2602 13.125 43.75 12.6353 43.75 12.0312C43.75 11.4272 43.2604 10.9375 42.6562 10.9375Z" fill="#CB2336"/>
<path d="M42.6562 15.3125H27.3437C26.7397 15.3125 26.25 15.8022 26.25 16.4062C26.25 17.0103 26.7397 17.5 27.3437 17.5H42.6562C43.2602 17.5 43.75 17.0103 43.75 16.4062C43.75 15.8022 43.2604 15.3125 42.6562 15.3125Z" fill="#CB2336"/>
<path d="M42.6562 19.6875H27.3437C26.7397 19.6875 26.25 20.1772 26.25 20.7812C26.25 21.3853 26.7397 21.875 27.3437 21.875H42.6562C43.2602 21.875 43.75 21.3853 43.75 20.7812C43.75 20.1772 43.2604 19.6875 42.6562 19.6875Z" fill="#CB2336"/>
</svg>
