<svg width="34" height="29" viewBox="0 0 34 29" fill="none" xmlns="http://www.w3.org/2000/svg">
<g clip-path="url(#clip0)">
<path d="M11.2195 21.0295C11.5984 20.4989 11.9492 19.9699 12.3385 19.4701C13.4541 18.0383 14.5671 16.6043 15.7147 15.1972C17.4299 13.094 19.3411 11.1661 21.3173 9.3042C22.396 8.28786 23.5133 7.30705 24.6662 6.37416C26.2596 5.0848 27.8863 3.83353 29.5321 2.60922C30.434 1.93823 31.3969 1.34683 32.3447 0.737884C32.7293 0.490968 33.1459 0.293264 33.5478 0.0724519C33.6905 -0.00585939 33.8305 -0.0533597 33.9511 0.10583C34.0712 0.265449 33.948 0.376711 33.8574 0.479842C33.6493 0.71606 33.4269 0.939439 33.2153 1.17266C32.8021 1.62841 32.3924 2.08715 31.9809 2.54461C31.7377 2.81549 31.4901 3.08294 31.2521 3.35767C30.6715 4.02739 30.0919 4.69838 29.5174 5.37323C28.6919 6.34249 27.8581 7.30576 27.0504 8.29C25.9665 9.61102 24.9051 10.9504 23.832 12.28C22.5547 13.8625 21.4222 15.5464 20.2936 17.232C19.0177 19.1376 17.7599 21.0552 16.4995 22.971C15.475 24.5283 14.4578 26.0898 13.4381 27.65C12.7877 28.6449 11.52 29.1846 10.384 28.9432C9.45877 28.7468 8.80321 28.2089 8.33886 27.4027C7.8654 26.5802 7.36073 25.7757 6.86993 24.963C5.95857 23.455 5.04764 21.947 4.13498 20.4398C3.32507 19.1025 2.513 17.767 1.70223 16.4305C1.63242 15.9243 1.17457 15.647 0.965594 15.2169C0.757915 14.789 0.476095 14.3961 0.229829 13.9866C-0.0689002 13.4902 -0.0780052 12.9827 0.222458 12.491C0.317409 12.3352 0.470459 12.1902 0.631313 12.102C1.50539 11.6223 2.4601 11.4717 3.43563 11.5983C4.50612 11.7374 5.43135 12.2051 6.1927 12.9844C6.68653 13.4898 7.00477 14.1047 7.36637 14.6927C8.22613 16.0916 9.07289 17.4982 9.92356 18.9023C10.3341 19.5801 10.7408 20.2596 11.1501 20.9383C11.1653 20.9666 11.1891 20.9906 11.2195 21.0295Z" fill="black"/>
</g>
<defs>
<clipPath id="clip0">
<rect width="34" height="29" fill="white"/>
</clipPath>
</defs>
</svg>
