<svg width="60" height="60" viewBox="0 0 60 60" fill="none" xmlns="http://www.w3.org/2000/svg">
<g clip-path="url(#clip0)">
<path d="M16.9998 45C15.3429 45 13.9998 46.3431 13.9998 48C13.9998 49.6568 15.3429 51 16.9998 51C18.6566 51 19.9997 49.6568 19.9997 48C19.9997 46.3431 18.6566 45 16.9998 45ZM16.9998 49C16.4475 49 15.9998 48.5523 15.9998 48C15.9998 47.4477 16.4475 47 16.9998 47C17.552 47 17.9998 47.4477 17.9998 48C17.9998 48.5523 17.552 49 16.9998 49Z" fill="white"/>
<path d="M59 58.0003H54.756C54.764 57.5389 54.6081 57.0896 54.316 56.7323C52.331 54.3343 49 49.6223 49 45.0003V36.6483C49.7145 36.5178 50.3001 36.0066 50.526 35.3163L51.136 33.4113C51.297 32.9056 51.2505 32.3567 51.0067 31.8854C50.7629 31.4141 50.3417 31.059 49.836 30.8983L58.031 5.21627C58.7026 3.11152 57.5408 0.860852 55.436 0.189274C53.3312 -0.482305 51.0806 0.679517 50.409 2.78427L42.216 28.4663C41.1634 28.1351 40.0408 28.7158 39.703 29.7663L39.096 31.6663C38.9645 32.0827 38.9744 32.531 39.124 32.9413C37.0328 34.1567 35.0489 35.548 33.194 37.1003L33.921 29.8353C35.1545 29.4397 35.9935 28.2956 36 27.0003V25.0003C36 23.3434 34.6569 22.0003 33 22.0003H32C32.0175 20.4937 31.3469 19.0614 30.1786 18.11C29.0103 17.1586 27.4718 16.792 26 17.1143V10.0003C26 6.68657 23.3137 4.00027 20 4.00027C16.6863 4.00027 14 6.68657 14 10.0003V13.5923C12.7709 14.0864 11.6852 14.8806 10.842 15.9023C10.0098 15.3168 9.01749 15.0019 8 15.0003C6.31238 14.9972 4.73749 15.8471 3.81378 17.2595C2.89008 18.6719 2.74269 20.4554 3.422 22.0003H3C1.34315 22.0003 0 23.3434 0 25.0003V27.0003C0.00434799 28.2974 0.843791 29.4442 2.079 29.8403L4.645 55.5003C4.89148 58.0604 7.04804 60.0111 9.62 60.0003H26.38C27.6033 59.9999 28.7833 59.548 29.694 58.7313C31.779 59.7393 34.582 60.0003 38 60.0003H59C59.5523 60.0003 60 59.5526 60 59.0003C60 58.448 59.5523 58.0003 59 58.0003ZM52.314 3.39227C52.5588 2.61958 53.2458 2.07105 54.0535 2.00334C54.8612 1.93563 55.63 2.36212 56 3.08327C56.245 3.554 56.2911 4.10329 56.128 4.60827L47.932 30.2903L44.122 29.0743L52.314 3.39227ZM41.608 30.3713L49.229 32.8003L48.621 34.7053L41 32.2763L41.608 30.3713ZM33 24.0003C33.5523 24.0003 34 24.448 34 25.0003V27.0003C34 27.5526 33.5523 28.0003 33 28.0003H26V24.0003H33ZM20 24.0003H24V28.0003H20V24.0003ZM27 19.0003C28.6569 19.0003 30 20.3434 30 22.0003H26V19.2003C26.3189 19.0751 26.6575 19.0074 27 19.0003ZM16 10.0003C16 7.79114 17.7909 6.00027 20 6.00027C22.2091 6.00027 24 7.79114 24 10.0003V17.1723C22.4455 14.2744 19.2606 12.6401 16 13.0673V10.0003ZM5 20.0003C4.99342 18.7472 5.77013 17.6235 6.94462 17.1868C8.11911 16.7501 9.44132 17.0934 10.255 18.0463C10.4646 18.2874 10.7768 18.4138 11.0951 18.3865C11.4134 18.3592 11.6995 18.1815 11.865 17.9083C13.1345 15.7944 15.569 14.6737 18.0004 15.0837C20.4318 15.4938 22.364 17.351 22.87 19.7643C22.9497 20.146 23.244 20.4466 23.624 20.5343C23.7477 20.5607 23.8755 20.5628 24 20.5403V22.0003H20V21.0003C20 20.448 19.5523 20.0003 19 20.0003C18.4477 20.0003 18 20.448 18 21.0003V40.0003C18.0004 40.2696 17.8897 40.5272 17.694 40.7123C17.5116 40.8989 17.2609 41.0029 17 41.0003C16.4477 41.0003 16 40.5526 16 40.0003V33.0003C15.9918 31.3468 14.6534 30.0085 13 30.0003C11.3431 30.0003 10 31.3434 10 33.0003V36.0003C10.0004 36.2696 9.88969 36.5272 9.694 36.7123C9.5116 36.8989 9.26092 37.0029 9 37.0003C8.44771 37.0003 8 36.5526 8 36.0003V21.0003C8 20.448 7.55228 20.0003 7 20.0003C6.44772 20.0003 6 20.448 6 21.0003V22.0003H5.792C5.28837 21.4554 5.00598 20.7423 5 20.0003ZM2 25.0003C2 24.448 2.44772 24.0003 3 24.0003H6V28.0003H3C2.44772 28.0003 2 27.5526 2 27.0003V25.0003ZM26.38 58.0003H9.62C8.07661 58.0073 6.78234 56.8366 6.635 55.3003L4.105 30.0003H6V36.0003C6 37.6571 7.34315 39.0003 9 39.0003C10.653 38.991 11.9907 37.6533 12 36.0003V33.0003C12 32.448 12.4477 32.0003 13 32.0003C13.2697 31.9996 13.5277 32.1103 13.713 32.3063C13.8985 32.4894 14.002 32.7397 14 33.0003V40.0003C14 41.6571 15.3431 43.0003 17 43.0003C18.653 42.991 19.9907 41.6533 20 40.0003V30.0003H24V32.1843C22.6225 32.6713 21.7961 34.0799 22.0432 35.52C22.2903 36.9601 23.5389 38.0127 25 38.0127C26.4611 38.0127 27.7097 36.9601 27.9568 35.52C28.2039 34.0799 27.3775 32.6713 26 32.1843V30.0003H31.9L30.975 39.2453C28.2271 42.1674 26.4881 45.8933 26.013 49.8763C25.606 53.1333 26.113 55.5193 27.573 57.1693C27.691 57.3033 27.831 57.4093 27.959 57.5313C27.4874 57.8334 26.94 57.9959 26.38 58.0003ZM26 35.0003C26 35.5526 25.5523 36.0003 25 36.0003C24.4477 36.0003 24 35.5526 24 35.0003C24 34.448 24.4477 34.0003 25 34.0003C25.5523 34.0003 26 34.448 26 35.0003ZM51 58.0003H46.328C46.0504 57.8085 45.7627 57.6319 45.466 57.4713C43.688 56.4873 41 55.0003 41 50.0003C41 43.5653 43.685 40.7303 43.707 40.7073C44.086 40.3149 44.0806 39.6912 43.6948 39.3055C43.3091 38.9197 42.6854 38.9143 42.293 39.2933C42.158 39.4273 39 42.6703 39 50.0003C39 54.3723 40.859 56.6753 42.578 58.0003H38.278C36.3117 57.0107 34.849 55.2438 34.244 53.1273C33.332 49.3953 35.809 45.5913 35.834 45.5533C36.1364 45.0936 36.0107 44.476 35.5526 44.1712C35.0945 43.8663 34.4762 43.9888 34.169 44.4453C34.047 44.6293 31.185 48.9943 32.298 53.5873C32.7027 55.2303 33.5704 56.7227 34.798 57.8873C32.375 57.6873 30.244 57.1743 29.072 55.8473C28.017 54.6473 27.665 52.7803 27.997 50.1253C28.98 42.2793 34.672 37.8633 40.765 34.3003L47 36.2903V45.0003C47 50.2493 50.618 55.4003 52.771 58.0003H51Z" fill="white"/>
<path d="M9 8.99988C9 7.34302 7.65685 5.99988 6 5.99988C4.34315 5.99988 3 7.34302 3 8.99988C3 10.6567 4.34315 11.9999 6 11.9999C6.79565 11.9999 7.55871 11.6838 8.12132 11.1212C8.68393 10.5586 9 9.79553 9 8.99988ZM5 8.99988C5 8.44759 5.44772 7.99988 6 7.99988C6.55228 7.99988 7 8.44759 7 8.99988C7 9.55216 6.55228 9.99988 6 9.99988C5.44772 9.99988 5 9.55216 5 8.99988Z" fill="white"/>
<path d="M33 14.0001C34.6568 14.0001 36 12.657 36 11.0001C36 9.34327 34.6568 8.00012 33 8.00012C31.3431 8.00012 30 9.34327 30 11.0001C30 12.657 31.3431 14.0001 33 14.0001ZM33 10.0001C33.5523 10.0001 34 10.4478 34 11.0001C34 11.5524 33.5523 12.0001 33 12.0001C32.4477 12.0001 32 11.5524 32 11.0001C32 10.4478 32.4477 10.0001 33 10.0001Z" fill="white"/>
<path d="M28.9997 5C29.552 5 29.9997 4.55229 29.9997 4C29.9997 3.44772 29.552 3 28.9997 3C28.4475 3 27.9998 3.44772 27.9998 4C27.9998 4.55229 28.4475 5 28.9997 5Z" fill="white"/>
<path d="M12 5C12.5523 5 13 4.55229 13 4C13 3.44772 12.5523 3 12 3C11.4477 3 11 3.44772 11 4C11 4.55229 11.4477 5 12 5Z" fill="white"/>
</g>
<defs>
<clipPath id="clip0">
<rect width="60" height="60" fill="white"/>
</clipPath>
</defs>
</svg>
