<svg width="70" height="70" viewBox="0 0 70 70" fill="none" xmlns="http://www.w3.org/2000/svg">
<path d="M45.9453 5.46875C45.1906 5.46875 44.5781 6.08125 44.5781 6.83594C44.5781 7.59063 45.1906 8.20312 45.9453 8.20312C46.7 8.20312 47.3125 7.59063 47.3125 6.83594C47.3125 6.08125 46.7 5.46875 45.9453 5.46875Z" fill="#CB2336"/>
<path d="M24.0703 5.46875C23.3156 5.46875 22.7031 6.08125 22.7031 6.83594C22.7031 7.59063 23.3156 8.20312 24.0703 8.20312C24.825 8.20312 25.4375 7.59063 25.4375 6.83594C25.4375 6.08125 24.825 5.46875 24.0703 5.46875Z" fill="#CB2336"/>
<path d="M63.4429 67.6874L54.3959 58.2359C58.0508 58.1049 60.9843 55.0926 60.9843 51.4062V10.8377C60.9843 8.62873 60.2122 6.47158 58.81 4.76355C57.4069 3.05594 55.4411 1.8792 53.2756 1.45086C48.4232 0.488086 43.4551 0 38.5092 0H31.2864C26.5823 0 21.6824 0.450625 16.7242 1.44156C12.2665 2.33338 9.03114 6.28059 9.03114 10.8268V51.4062C9.03114 55.1236 12.0143 58.1554 15.7122 58.2382L6.56309 67.6815C6.18096 68.0758 6.07186 68.6604 6.2861 69.1659C6.50007 69.6715 6.99594 70 7.54501 70H17.3204C17.7587 70 18.1704 69.7899 18.4275 69.4349L22.5748 63.7109H47.5623L51.7095 69.4351C51.9667 69.7899 52.3785 70 52.8167 70H62.4554C63.0029 70 63.4976 69.6732 63.7126 69.1698C63.9277 68.6662 63.8216 68.0831 63.4429 67.6874ZM11.7655 51.4062V10.8268C11.7655 7.57928 14.0765 4.75986 17.2602 4.12275C21.7232 3.2308 26.439 2.73438 31.2862 2.73438H38.5091C43.2769 2.73438 48.0658 3.20482 52.7439 4.13287C54.2908 4.43898 55.6949 5.27953 56.6968 6.49893C57.6982 7.71887 58.2497 9.25969 58.2497 10.8376V51.4062C58.2497 53.6679 56.4098 55.5078 54.1482 55.5078H15.8669C13.6055 55.5078 11.7655 53.6679 11.7655 51.4062ZM16.6227 67.2656H10.7732L19.5154 58.2422H23.1606L16.6227 67.2656ZM24.556 60.9766L26.5372 58.2422H43.6001L45.5811 60.9766H24.556ZM53.5144 67.2656L46.9767 58.2422H50.6169L59.2541 67.2656H53.5144Z" fill="#CB2336"/>
<path d="M54.1484 10.9375H15.8672C15.1122 10.9375 14.5 11.5497 14.5 12.3047V35C14.5 35.755 15.1122 36.3672 15.8672 36.3672H54.1484C54.9034 36.3672 55.5156 35.755 55.5156 35V12.3047C55.5156 11.5497 54.9034 10.9375 54.1484 10.9375ZM33.6406 33.6328H17.2344V13.6719H33.6406V33.6328ZM52.7812 33.6328H36.375V13.6719H52.7812V33.6328Z" fill="#CB2336"/>
<path d="M40.4766 5.46875H29.5391C28.7841 5.46875 28.1719 6.08098 28.1719 6.83594C28.1719 7.5909 28.7841 8.20312 29.5391 8.20312H40.4766C41.2315 8.20312 41.8438 7.5909 41.8438 6.83594C41.8438 6.08098 41.2315 5.46875 40.4766 5.46875Z" fill="#CB2336"/>
<path d="M50.0469 40.4688C47.0314 40.4688 44.5781 42.922 44.5781 45.9375C44.5781 48.953 47.0314 51.4062 50.0469 51.4062C53.0623 51.4062 55.5156 48.953 55.5156 45.9375C55.5156 42.922 53.0623 40.4688 50.0469 40.4688ZM50.0469 48.6719C48.5391 48.6719 47.3125 47.4452 47.3125 45.9375C47.3125 44.4298 48.5391 43.2031 50.0469 43.2031C51.5546 43.2031 52.7812 44.4298 52.7812 45.9375C52.7812 47.4452 51.5546 48.6719 50.0469 48.6719Z" fill="#CB2336"/>
<path d="M19.9687 40.4688C16.9533 40.4688 14.5 42.922 14.5 45.9375C14.5 48.953 16.9534 51.4062 19.9687 51.4062C22.9842 51.4062 25.4375 48.953 25.4375 45.9375C25.4375 42.922 22.9842 40.4688 19.9687 40.4688ZM19.9687 48.6719C18.461 48.6719 17.2344 47.4452 17.2344 45.9375C17.2344 44.4298 18.461 43.2031 19.9687 43.2031C21.4765 43.2031 22.7031 44.4298 22.7031 45.9375C22.7031 47.4452 21.4765 48.6719 19.9687 48.6719Z" fill="#CB2336"/>
<path d="M40.4766 41.8359H29.5391C28.7841 41.8359 28.1719 42.4482 28.1719 43.2031C28.1719 43.9581 28.7841 44.5703 29.5391 44.5703H40.4766C41.2315 44.5703 41.8438 43.9581 41.8438 43.2031C41.8438 42.4482 41.2317 41.8359 40.4766 41.8359Z" fill="#CB2336"/>
<path d="M40.4766 47.3047H29.5391C28.7841 47.3047 28.1719 47.9169 28.1719 48.6719C28.1719 49.4268 28.7841 50.0391 29.5391 50.0391H40.4766C41.2315 50.0391 41.8438 49.4268 41.8438 48.6719C41.8438 47.9169 41.2317 47.3047 40.4766 47.3047Z" fill="#CB2336"/>
</svg>
