<svg width="60" height="60" viewBox="0 0 60 60" fill="none" xmlns="http://www.w3.org/2000/svg">
<path d="M21.8279 37.5862C21.5168 36.8404 20.7863 36.3553 19.9781 36.3577C19.1694 36.36 18.4421 36.8492 18.1352 37.5969L15.5442 44.0221L14.7815 45.857C14.0612 47.605 14.2063 49.5897 15.1722 51.2149C16.0575 52.7364 17.6158 53.7437 19.3666 53.9259C19.5717 53.9473 19.7777 53.958 19.9837 53.958C20.1892 53.958 20.3947 53.9473 20.5989 53.9264C22.3506 53.7446 23.9103 52.7374 24.7956 51.2149C25.7619 49.5901 25.9066 47.605 25.1863 45.857L21.8279 37.5862ZM23.0783 50.1919C22.5138 51.1693 21.5164 51.8185 20.3943 51.9385C20.1208 51.9668 19.8451 51.9668 19.5717 51.9385C18.45 51.818 17.4535 51.1689 16.889 50.1919C16.2449 49.1103 16.1478 47.7882 16.6267 46.6238L19.9795 38.3442L22.5785 44.7893L23.3411 46.6238C23.82 47.7882 23.7229 49.1103 23.0783 50.1919Z" fill="white"/>
<path d="M5.99498 33.974C5.44345 33.974 4.99609 34.4214 4.99609 34.9733V35.9727C4.99609 36.5242 5.44345 36.9716 5.99498 36.9716C6.54697 36.9716 6.99433 36.5242 6.99433 35.9727V34.9733C6.99433 34.4214 6.54697 33.974 5.99498 33.974Z" fill="white"/>
<path d="M5.99495 38.9702C5.44344 38.9702 4.99609 39.4176 4.99609 39.9695V52.9588C4.99609 53.5108 5.44344 53.9581 5.99495 53.9581C6.54692 53.9581 6.99427 53.5108 6.99427 52.9588V39.9695C6.99427 39.4176 6.54692 38.9702 5.99495 38.9702Z" fill="white"/>
<path d="M54.3658 32.452C51.918 31.1927 49.8003 30.0762 49.0335 27.6177L53.5897 23.0615C53.9645 22.6867 54.1752 22.1784 54.1752 21.6483C54.1752 21.1182 53.9645 20.6099 53.5897 20.2351L47.2316 13.876C46.7656 13.4101 46.0997 13.2045 45.452 13.3259L36.7222 0.855129C36.3832 0.371048 35.848 0.0613483 35.2593 0.00973168C34.6706 -0.04142 34.0898 0.169697 33.6717 0.587745L22.3296 11.9299C21.7009 12.5619 21.5651 13.5333 21.9957 14.3136L23.4637 16.9567L20.8211 15.4878C20.0403 15.0581 19.0698 15.1943 18.4369 15.8221L15.5734 18.6861C15.4497 18.8131 15.3432 18.9563 15.2576 19.1116C10.9102 19.3502 0 20.3146 0 23.9827V27.9795C0.0325511 28.6993 0.403168 29.361 0.999317 29.7656V55.1452C1.00536 55.2019 1.01652 55.2577 1.03326 55.3126L1.03559 55.3261C1.04907 55.4154 1.07465 55.5023 1.11139 55.5842C2.30973 59.0127 13.3222 59.9534 19.9836 59.9534C27.035 59.9534 38.9683 58.9011 38.9683 54.9573V37.6829L42.6033 34.0479C45.0614 34.8147 46.1783 36.9319 47.4376 39.3802C48.0951 40.7925 48.9168 42.122 49.8854 43.3417C50.7652 44.3652 52.0347 44.9706 53.3833 45.0106C53.4446 45.0125 53.506 45.0139 53.5674 45.0139C54.9057 45.0125 56.1892 44.4814 57.1364 43.5361L58.5226 42.1508C59.5126 41.158 60.0465 39.7992 59.9967 38.3977C59.9572 37.0491 59.3513 35.7796 58.3282 34.9003C57.108 33.9312 55.7781 33.1095 54.3658 32.452ZM52.1775 21.6473L36.6334 37.1919L30.2748 30.8328L45.8189 15.2892L52.1775 21.6473ZM2.58781 28.4435C2.36088 28.3315 2.16 28.1724 1.9991 27.9771L1.99817 27.9776V26.4142C2.3925 26.6077 2.79846 26.776 3.21372 26.9192L3.25743 26.9341L3.26069 26.9355C6.79248 28.2148 13.0362 28.9788 19.9836 28.9788C21.9696 28.9788 23.9548 28.9062 25.8967 28.7756L28.3124 30.4668C28.3069 30.4957 28.3083 30.5254 28.3041 30.5547C25.5396 30.8379 22.7625 30.9788 19.9836 30.9769C12.2378 30.9769 5.08959 29.9376 2.58781 28.4435ZM20.4858 24.9876L23.241 26.916C22.1598 26.9569 21.0722 26.9801 19.9836 26.9801C15.8114 27.0164 11.644 26.6821 7.53045 25.9808C11.644 25.28 15.8114 24.9457 19.9836 24.982C20.1542 24.9848 20.3193 24.9862 20.4853 24.9876H20.4858ZM19.8501 17.2348L25.5503 20.4016C25.9404 20.6187 26.4268 20.5504 26.7426 20.2351C27.0578 19.9194 27.1262 19.4325 26.909 19.0428L23.7427 13.3426L28.0883 8.99708L34.453 16.635C34.6785 16.9186 35.0403 17.0576 35.3974 16.9986C35.755 16.9395 36.0526 16.6917 36.1749 16.3508C36.2977 16.01 36.2261 15.6291 35.988 15.3562L29.5071 7.57832L35.0849 2.00046L43.8123 14.4689L29.4541 28.8272L16.9861 20.0993L19.8501 17.2348ZM15.2674 21.1163C15.412 21.3614 15.6073 21.5729 15.8403 21.7366L17.6655 23.0136C11.8593 23.1586 6.74272 23.8459 3.57829 24.9187C2.98865 24.7425 2.44784 24.4323 1.99817 24.012V24.0068C2.30275 23.2107 6.49068 21.5962 15.2674 21.1163ZM19.9836 57.9553C9.40633 57.9553 3.31416 55.9994 2.99749 54.9462V30.8323C6.44325 32.1534 12.7995 32.9751 19.9836 32.9751C23.0285 32.9793 26.0706 32.8147 29.0969 32.4813L35.2202 38.6046C35.5941 38.9808 36.1028 39.1914 36.6334 39.19C36.7464 39.1886 36.859 39.1775 36.9701 39.157V54.9438C36.6632 55.9966 30.5706 57.9553 19.9836 57.9553ZM57.1094 40.7381L55.7237 42.1238C55.1234 42.7204 54.3031 43.0422 53.4572 43.0134C52.6644 42.992 51.9171 42.6377 51.3986 42.0373C50.535 40.9352 49.8022 39.7369 49.2144 38.466C48.0574 36.2163 46.7708 33.7145 44.162 32.4892L47.4743 29.1764C48.6996 31.7856 51.201 33.0718 53.4512 34.2293C54.722 34.817 55.9204 35.5499 57.0225 36.4134C57.6228 36.9319 57.9772 37.6787 57.999 38.4716C58.0288 39.3179 57.707 40.1382 57.1094 40.7381Z" fill="white"/>
<path d="M34.514 29.4193L33.8076 30.1257C33.5486 30.3768 33.4454 30.7479 33.537 31.0967C33.6286 31.4455 33.9006 31.718 34.2494 31.8096C34.5982 31.9012 34.9693 31.7975 35.2204 31.5389L35.9272 30.8325C36.309 30.4405 36.3048 29.8151 35.9184 29.4281C35.5315 29.0417 34.9056 29.0375 34.514 29.4193Z" fill="white"/>
<path d="M45.1116 18.8215L37.3403 26.5933C37.0813 26.8444 36.9781 27.2155 37.0697 27.5643C37.1613 27.9131 37.4338 28.1856 37.7826 28.2772C38.1313 28.3688 38.5024 28.2651 38.7535 28.0065L46.5248 20.2343C46.7834 19.9831 46.8871 19.6121 46.7955 19.2633C46.7039 18.9145 46.4314 18.642 46.0826 18.5509C45.7338 18.4593 45.3628 18.5625 45.1116 18.8215Z" fill="white"/>
</svg>
