<svg width="70" height="70" viewBox="0 0 70 70" fill="none" xmlns="http://www.w3.org/2000/svg">
<g clip-path="url(#clip0)">
<path d="M0.954191 37.0756C5.09513 40.6274 9.78841 44.6534 18.8667 44.6534C27.9452 44.6532 32.6388 40.6274 36.7798 37.0756C40.696 33.7167 44.0782 30.8157 51.1326 30.8157C58.1871 30.8157 61.5693 33.7167 65.4853 37.0756C66.6317 38.0588 68.3579 37.9267 69.341 36.7804C70.3242 35.6341 70.1921 33.9078 69.0457 32.9247C64.9047 29.3729 60.2111 25.3469 51.1326 25.3469C42.054 25.3469 37.3605 29.3727 33.2194 32.9247C29.3032 36.2836 25.9211 39.1846 18.8667 39.1846C11.8124 39.1846 8.43066 36.2837 4.51476 32.9247C3.36851 31.9416 1.6423 32.0735 0.659015 33.2199C-0.324266 34.3661 -0.192059 36.0925 0.954191 37.0756Z" fill="#CB2336"/>
<path d="M0.954191 22.1193C5.09499 25.6713 9.78827 29.6971 18.8667 29.6971C27.9452 29.6971 32.6388 25.6713 36.7798 22.1193C40.696 18.7604 44.078 15.8594 51.1326 15.8594C58.1868 15.8594 61.569 18.7603 65.4853 22.1193C66.6317 23.1027 68.3578 22.9703 69.3409 21.8239C70.3242 20.6776 70.1917 18.9511 69.0455 17.9681C64.9044 14.4162 60.2108 10.3906 51.1326 10.3906C42.054 10.3906 37.3605 14.4164 33.2194 17.9684C29.3032 21.3273 25.9211 24.2283 18.8667 24.2283C11.8125 24.2283 8.43066 21.3274 4.51476 17.9684C3.36851 16.9851 1.64216 17.1172 0.659015 18.2636C-0.324266 19.4098 -0.192059 21.1362 0.954191 22.1193Z" fill="#CB2336"/>
<path d="M69.0456 47.8808C64.9045 44.3289 60.211 40.303 51.1325 40.303C42.0539 40.303 37.3604 44.3288 33.2193 47.8808C29.3031 51.2397 25.921 54.1407 18.8666 54.1407C11.8127 54.1407 8.43068 51.2398 4.51478 47.881L4.51451 47.8808C3.36826 46.8979 1.64218 47.03 0.658901 48.1761C-0.324244 49.3223 -0.192037 51.0487 0.954213 52.0318C5.09515 55.5838 9.78857 59.6094 18.8666 59.6094C27.9451 59.6094 32.6386 55.5836 36.7797 52.0317C40.6959 48.6728 44.078 45.7717 51.1325 45.7717C58.187 45.7717 61.5692 48.6728 65.4852 52.0317C66.6316 53.0148 68.3578 52.8827 69.3409 51.7365C70.3241 50.5901 70.192 48.8639 69.0456 47.8808Z" fill="#CB2336"/>
</g>
<defs>
<clipPath id="clip0">
<rect width="70" height="70" fill="white"/>
</clipPath>
</defs>
</svg>
