<svg width="60" height="60" viewBox="0 0 60 60" fill="none" xmlns="http://www.w3.org/2000/svg">
<g clip-path="url(#clip0)">
<path d="M53.955 39.144C54.599 38.794 54.9999 38.1199 55 37.387V36C56.6569 36 58 34.6568 58 33V27C58 25.3432 56.6569 24 55 24H53.9751C53.7089 18.1903 51.1902 12.7127 46.953 8.72895C44.1453 6.04764 40.7305 4.0855 37 3.00994V2.9999C36.9999 1.34316 35.6569 0 33.9999 0H25.9999C24.3431 0 22.9999 1.34316 22.9999 3V3.01004C19.2706 4.085 15.8567 6.04646 13.0499 8.72708C8.811 12.7107 6.2911 18.1892 6.02497 24.0001H5C3.34316 24.0001 2 25.3433 2 27.0001V33.0001C2 34.6569 3.34316 36.0001 5 36.0001V37.3871C5.0001 38.1199 5.40107 38.7941 6.04504 39.1441L8.87605 40.6851L11.042 45.9201L10.131 49.0061C9.92001 49.7087 10.1121 50.4705 10.631 50.9891L14.0091 54.3681C14.5278 54.8845 15.2873 55.0764 15.989 54.8681L19.077 53.9551L24.312 56.1211L25.852 58.9531C26.2021 59.599 26.8782 60.0011 27.6129 60.0001H32.3869C33.1195 60.0002 33.7936 59.5996 34.1439 58.9561L35.6849 56.1241L40.9199 53.9582L44.0089 54.8711C44.7107 55.0769 45.4688 54.8854 45.9888 54.3712L49.3648 50.9942C49.8834 50.4758 50.0754 49.7145 49.8648 49.0122L48.9528 45.9242L51.1188 40.6892L53.955 39.144ZM14.4339 10.171C15.2343 9.40668 16.0922 8.70493 16.9999 8.07198V16.9999C16.9999 17.5522 17.4476 17.9999 17.9999 17.9999C18.5521 17.9999 18.9998 17.5522 18.9998 16.9999V6.81198C20.2738 6.10915 21.6135 5.53279 22.9998 5.09098V9C22.9998 9.55225 23.4475 9.99997 23.9998 9.99997C24.552 9.99997 24.9997 9.55225 24.9997 9V3C24.9997 2.44775 25.4475 2.00003 25.9997 2.00003H33.9997C34.552 2.00003 34.9997 2.44775 34.9997 3V9C34.9997 9.55225 35.4474 9.99997 35.9997 9.99997C36.5519 9.99997 36.9996 9.55225 36.9996 9V5.09098C38.3859 5.53279 39.7256 6.10915 40.9996 6.81198V17C40.9996 17.5523 41.4473 18 41.9996 18C42.5518 18 42.9995 17.5523 42.9995 17V8.07198C43.9082 8.70552 44.767 9.40757 45.5685 10.172C49.4117 13.7797 51.708 18.7357 51.9755 24H8.02401C8.29172 18.7348 10.5892 13.7782 14.4339 10.171ZM3.99993 33V27C3.99993 26.4478 4.44766 26 4.9999 26H54.9999C55.5522 26 55.9999 26.4478 55.9999 27V33C55.9999 33.5522 55.5522 34 54.9999 34H5C4.44766 34 3.99993 33.5523 3.99993 33ZM40.949 36C40.4404 41.6682 35.69 46.0114 29.999 46.0114C24.3079 46.0114 19.5576 41.6682 19.0489 36H40.949ZM49.4109 39.593L46.9749 45.482C46.887 45.6933 46.8743 45.9284 46.9389 46.148L47.9518 49.575L44.5738 52.953L41.1468 51.9389C40.9273 51.8744 40.6921 51.8871 40.4808 51.975L34.5928 54.412C34.3797 54.4981 34.2031 54.6553 34.0928 54.857L32.387 58.0001H27.612L25.8999 54.8571C25.7897 54.6554 25.613 54.4981 25.3999 54.4121L19.5119 51.9751C19.3006 51.8872 19.0655 51.8745 18.8459 51.939L15.4179 52.9531L12.0409 49.5751L13.0539 46.1481C13.1184 45.9285 13.1057 45.6935 13.0178 45.4821L10.5818 39.5931C10.4951 39.3801 10.3375 39.2035 10.1358 39.0931L6.99974 37.3872V36.0002H17.0508C17.5632 42.7734 23.2083 48.0076 30.0008 48.0076C36.7932 48.0076 42.4384 42.7734 42.9507 36.0002H52.9997V37.3872L49.8567 39.1002C49.6564 39.2087 49.499 39.3827 49.4109 39.593Z" fill="white"/>
</g>
<defs>
<clipPath id="clip0">
<rect width="60" height="60" fill="white"/>
</clipPath>
</defs>
</svg>
