<svg width="60" height="60" viewBox="0 0 60 60" fill="none" xmlns="http://www.w3.org/2000/svg">
<g clip-path="url(#clip0)">
<path d="M3 54H20.013L18.675 57.23C18.4204 57.8467 18.4893 58.5497 18.8588 59.1053C19.2282 59.6608 19.8498 59.9962 20.517 60C20.8476 59.9991 21.1729 59.9167 21.464 59.76L31.933 54.168C32.0089 54.1172 32.0811 54.0611 32.149 54H41C42.6569 54 44 52.6569 44 51V41.033L59.223 24.243C59.7576 23.6536 60.0362 22.8759 59.9973 22.0811C59.9585 21.2863 59.6055 20.5395 59.016 20.005L54.57 15.975C53.9806 15.4404 53.2029 15.1618 52.4081 15.2007C51.6133 15.2395 50.8665 15.5925 50.332 16.182L44 23.167V3C44 1.34315 42.6569 0 41 0H11C10.7374 0.0123771 10.4874 0.116001 10.293 0.293L0.293 10.293C0.113858 10.486 0.00989492 10.7369 0 11V51C0 52.6569 1.34315 54 3 54ZM20.522 58L22.148 54.075L24.27 55.998L20.522 58ZM26.144 55L22.961 52.114L24.587 48.189L29.887 52.998L26.144 55ZM42 51C42 51.5523 41.5523 52 41 52H34.057L42 43.239V51ZM31.546 51.792L29.324 49.778L48.13 29.034L50.352 31.049L31.546 51.792ZM51.814 17.526C51.9914 17.3285 52.2408 17.2106 52.506 17.199C52.7715 17.1832 53.0319 17.2764 53.227 17.457L57.672 21.486C57.8688 21.6643 57.9865 21.9136 57.9993 22.1789C58.012 22.4442 57.9188 22.7036 57.74 22.9L55.054 25.863L49.127 20.49L51.814 17.526ZM47.784 21.971L53.711 27.344L51.7 29.567L45.773 24.194L47.784 21.971ZM44.426 25.671L46.648 27.685L27.842 48.434L25.62 46.419L31.7 39.711L31.713 39.697L44.426 25.671ZM24 27H20C18.3431 27 17 28.3431 17 30V38H11C10.4477 38 10 37.5523 10 37V23.291L22 12.551L34 23.291V34.2L30.552 38H27V30C27 28.3431 25.6569 27 24 27ZM25 30V38H19V30C19 29.4477 19.4477 29 20 29H24C24.5523 29 25 29.4477 25 30ZM37.991 21.451L36.677 23L22.667 10.464C22.2873 10.1241 21.7127 10.1241 21.333 10.464L7.333 23L6.011 21.4L22 7.08L37.991 21.451ZM31 12.451V10H34V15.14L31 12.451ZM10 3.414V9C10 9.55229 9.55229 10 9 10H3.414L10 3.414ZM2 12H9C10.6569 12 12 10.6569 12 9V2H41C41.5523 2 42 2.44772 42 3V25.373L36 31.991V24.881C36.2139 24.9587 36.4395 24.9989 36.667 25H36.803C37.3401 24.9639 37.8396 24.7113 38.187 24.3L39.511 22.753C40.2268 21.9087 40.1436 20.6488 39.323 19.906L36 16.93V10C36 8.89543 35.1046 8 34 8H31C29.8954 8 29 8.89543 29 10V10.665L23.329 5.589C22.5722 4.91238 21.4278 4.91238 20.671 5.589L4.677 19.9C3.8565 20.6424 3.77329 21.9021 4.489 22.746L5.813 24.3C6.34918 24.9312 7.22052 25.1639 8 24.884V37C8 37.7957 8.31607 38.5587 8.87868 39.1213C9.44129 39.6839 10.2044 40 11 40H28.739L23.583 45.688C23.428 45.8578 23.3038 46.0534 23.216 46.266L20.841 52H3C2.44772 52 2 51.5523 2 51V12Z" fill="white"/>
<path fill-rule="evenodd" clip-rule="evenodd" d="M6.00024 44.9997H20.0002C20.5525 44.9997 21.0002 44.552 21.0002 43.9997C21.0002 43.4475 20.5525 42.9998 20.0002 42.9998H6.00024C5.44796 42.9998 5.00024 43.4475 5.00024 43.9997C5.00024 44.552 5.44796 44.9997 6.00024 44.9997Z" fill="white"/>
<path fill-rule="evenodd" clip-rule="evenodd" d="M6.00024 48.9997H20.0002C20.5525 48.9997 21.0002 48.552 21.0002 47.9998C21.0002 47.4475 20.5525 46.9998 20.0002 46.9998H6.00024C5.44796 46.9998 5.00024 47.4475 5.00024 47.9998C5.00024 48.552 5.44796 48.9997 6.00024 48.9997Z" fill="white"/>
</g>
<defs>
<clipPath id="clip0">
<rect width="60" height="60" fill="white"/>
</clipPath>
</defs>
</svg>
