<svg width="70" height="70" viewBox="0 0 70 70" fill="none" xmlns="http://www.w3.org/2000/svg">
<path d="M35 10.5C21.4912 10.5 10.5 21.49 10.5 35C10.5 48.51 21.4912 59.5 35 59.5C48.5088 59.5 59.5 48.51 59.5 35C59.5 21.49 48.5088 10.5 35 10.5ZM35 57.1667C22.7768 57.1667 12.8333 47.2232 12.8333 35C12.8333 22.7768 22.7768 12.8333 35 12.8333C47.2232 12.8333 57.1667 22.7768 57.1667 35C57.1667 47.2232 47.2232 57.1667 35 57.1667Z" fill="#CB2336"/>
<path d="M68.8333 29.1667H64.7687C64.5038 27.8133 64.1457 26.474 63.6977 25.1673L67.2187 23.135C67.4858 22.9798 67.6818 22.7255 67.7623 22.4268C67.8428 22.1282 67.8008 21.8097 67.6457 21.5413L62.979 13.4587C62.6558 12.8998 61.9395 12.7085 61.3853 13.0317L57.8608 15.0663C56.9543 14.028 55.9743 13.0492 54.9337 12.1403L56.9683 8.61583C57.1235 8.34867 57.1643 8.03017 57.085 7.73033C57.0057 7.4305 56.8097 7.17617 56.5413 7.02217L48.4587 2.3555C47.901 2.0335 47.1858 2.22367 46.865 2.7825L44.8327 6.30233C43.526 5.8555 42.1867 5.49617 40.8333 5.2325V1.16667C40.8333 0.522667 40.3118 0 39.6667 0H30.3333C29.6882 0 29.1667 0.522667 29.1667 1.16667V5.2325C27.8133 5.49733 26.474 5.8555 25.1673 6.30233L23.135 2.7825C22.8118 2.22367 22.0967 2.0335 21.5413 2.3555L13.4587 7.02217C13.1915 7.17733 12.9955 7.43167 12.915 7.73033C12.8345 8.029 12.8765 8.3475 13.0317 8.61583L15.0663 12.1403C14.0257 13.0492 13.0468 14.028 12.1392 15.0663L8.61583 13.0317C8.05817 12.7097 7.34417 12.901 7.02217 13.4587L2.3555 21.5413C2.20033 21.8085 2.1595 22.127 2.23883 22.4268C2.31817 22.7267 2.51417 22.981 2.7825 23.135L6.3035 25.1673C5.8555 26.474 5.49617 27.8133 5.23133 29.1667H1.16667C0.5215 29.1667 0 29.6893 0 30.3333V39.6667C0 40.3107 0.5215 40.8333 1.16667 40.8333H5.23133C5.49617 42.1867 5.85433 43.526 6.30233 44.8327L2.7825 46.865C2.51533 47.0202 2.31933 47.2745 2.23883 47.5732C2.15833 47.8718 2.20033 48.1903 2.3555 48.4587L7.02217 56.5413C7.34417 57.099 8.05933 57.2892 8.61583 56.9683L12.1403 54.9337C13.0468 55.972 14.0268 56.9508 15.0675 57.8597L13.0328 61.3842C12.8777 61.6513 12.8368 61.9698 12.9162 62.2697C12.9955 62.5695 13.1915 62.8238 13.4598 62.9778L21.5425 67.6445C22.099 67.9653 22.813 67.7752 23.1362 67.2175L25.1685 63.6977C26.4752 64.1457 27.8145 64.5038 29.1678 64.7675V68.8333C29.1678 69.4773 29.6893 70 30.3345 70H39.6678C40.313 70 40.8345 69.4773 40.8345 68.8333V64.7675C42.1878 64.5027 43.5272 64.1445 44.8338 63.6977L46.8662 67.2175C47.187 67.7763 47.9033 67.9653 48.4598 67.6445L56.5425 62.9778C56.8097 62.8227 57.0057 62.5683 57.0862 62.2697C57.1667 61.971 57.1247 61.6525 56.9695 61.3842L54.9348 57.8597C55.9755 56.9508 56.9543 55.972 57.862 54.9337L61.3865 56.9683C61.9418 57.2892 62.657 57.0978 62.9802 56.5413L67.6468 48.4587C67.802 48.1915 67.8428 47.873 67.7635 47.5732C67.6842 47.2733 67.4882 47.019 67.2198 46.865L63.6988 44.8327C64.1468 43.526 64.505 42.1867 64.7698 40.8333H68.8333C69.4785 40.8333 70 40.3107 70 39.6667V30.3333C70 29.6893 69.4785 29.1667 68.8333 29.1667ZM67.6667 38.5H63.791C63.2182 38.5 62.7305 38.9153 62.6395 39.4812C62.3408 41.3385 61.8485 43.176 61.1788 44.94C60.9747 45.4755 61.1905 46.0787 61.6863 46.3657L65.0417 48.3035L61.5417 54.3655L58.1828 52.4265C57.6858 52.1395 57.0558 52.2562 56.6965 52.6983C55.5053 54.1567 54.1613 55.5007 52.6983 56.6953C52.255 57.057 52.1395 57.687 52.4265 58.1817L54.3655 61.5393L48.3047 65.0393L46.3668 61.684C46.0798 61.187 45.4732 60.9747 44.9412 61.1765C43.1772 61.8473 41.3408 62.3385 39.4823 62.6372C38.9153 62.7305 38.5 63.2182 38.5 63.791V67.6667H31.5V63.791C31.5 63.2182 31.0847 62.7305 30.5188 62.6395C28.6603 62.3408 26.824 61.8485 25.06 61.1788C24.5268 60.977 23.9213 61.1893 23.6343 61.6863L21.6965 65.0417L15.6357 61.5417L17.5747 58.184C17.8605 57.6893 17.745 57.0593 17.3028 56.6977C15.8398 55.503 14.4958 54.1578 13.3047 52.7007C12.943 52.2585 12.3118 52.1418 11.8183 52.4288L8.4595 54.3678L4.9595 48.3058L8.31483 46.368C8.81067 46.081 9.02533 45.4778 8.82233 44.9423C8.15267 43.1783 7.66033 41.342 7.36167 39.4835C7.2695 38.9153 6.78183 38.5 6.209 38.5H2.33333V31.5H6.209C6.78183 31.5 7.2695 31.0847 7.3605 30.5188C7.65917 28.6615 8.1515 26.824 8.82117 25.06C9.02533 24.5245 8.8095 23.9213 8.31367 23.6343L4.95833 21.6965L8.45833 15.6345L11.8172 17.5735C12.3118 17.8582 12.943 17.7427 13.3035 17.3017C14.4947 15.8433 15.8387 14.4993 17.3017 13.3047C17.745 12.943 17.8605 12.313 17.5735 11.8183L15.6345 8.46067L21.6953 4.96067L23.6332 8.316C23.9202 8.813 24.5257 9.02417 25.0588 8.8235C26.8228 8.15267 28.6592 7.6615 30.5177 7.36283C31.0847 7.2695 31.5 6.78183 31.5 6.209V2.33333H38.5V6.209C38.5 6.78183 38.9153 7.2695 39.4812 7.3605C41.3397 7.65917 43.176 8.1515 44.94 8.82117C45.472 9.02183 46.0787 8.81067 46.3657 8.31367L48.3035 4.95833L54.3643 8.45833L52.4253 11.816C52.1395 12.3107 52.255 12.9407 52.6972 13.3023C54.1602 14.497 55.5042 15.8422 56.6953 17.2993C57.0558 17.7403 57.6858 17.857 58.1817 17.5712L61.5405 15.6322L65.0405 21.6942L61.6852 23.632C61.1893 23.919 60.9747 24.5222 61.1777 25.0577C61.8473 26.8217 62.3397 28.658 62.6383 30.5165C62.7305 31.0847 63.2182 31.5 63.791 31.5H67.6667V38.5Z" fill="#CB2336"/>
<path d="M51.3333 24.5001H40.8333V22.1667C40.8333 20.2371 39.263 18.6667 37.3333 18.6667H32.6667C30.737 18.6667 29.1667 20.2371 29.1667 22.1667V24.5001H18.6667C18.0215 24.5001 17.5 25.0227 17.5 25.6667V30.3334C17.5 31.8524 18.4788 33.1357 19.8333 33.6187V44.3334C19.8333 46.2631 21.4037 47.8334 23.3333 47.8334H46.6667C48.5963 47.8334 50.1667 46.2631 50.1667 44.3334V33.6187C51.5212 33.1357 52.5 31.8524 52.5 30.3334V25.6667C52.5 25.0227 51.9785 24.5001 51.3333 24.5001ZM31.5 22.1667C31.5 21.5239 32.0227 21.0001 32.6667 21.0001H37.3333C37.9773 21.0001 38.5 21.5239 38.5 22.1667V24.5001H31.5V22.1667ZM47.8333 44.3334C47.8333 44.9762 47.3107 45.5001 46.6667 45.5001H23.3333C22.6893 45.5001 22.1667 44.9762 22.1667 44.3334V33.8334H31.5V35.0001C31.5 35.6441 32.0215 36.1667 32.6667 36.1667H37.3333C37.9785 36.1667 38.5 35.6441 38.5 35.0001V33.8334H47.8333V44.3334ZM33.8333 33.8334V32.6667V31.5001H36.1667V32.6667V33.8334H33.8333ZM50.1667 30.3334C50.1667 30.9762 49.644 31.5001 49 31.5001H38.5V30.3334C38.5 29.6894 37.9785 29.1667 37.3333 29.1667H32.6667C32.0215 29.1667 31.5 29.6894 31.5 30.3334V31.5001H21C20.356 31.5001 19.8333 30.9762 19.8333 30.3334V26.8334H30.3333H39.6667H50.1667V30.3334Z" fill="#CB2336"/>
</svg>
