<?xml version="1.0" encoding="UTF-8"?>
<svg width="155px" height="40px" viewBox="0 0 155 40" version="1.1" xmlns="http://www.w3.org/2000/svg" xmlns:xlink="http://www.w3.org/1999/xlink">
    <!-- Generator: Sketch 60.1 (88133) - https://sketch.com -->
    <title>logo__footer</title>
    <desc>Created with Sketch.</desc>
    <defs>
        <radialGradient cx="32.3908175%" cy="19.6808511%" fx="32.3908175%" fy="19.6808511%" r="75.7558791%" id="radialGradient-1">
            <stop stop-color="#DB7645" offset="0%"></stop>
            <stop stop-color="#D57144" offset="11%"></stop>
            <stop stop-color="#C66441" offset="24%"></stop>
            <stop stop-color="#AC4E3C" offset="39%"></stop>
            <stop stop-color="#903636" offset="52%"></stop>
            <stop stop-color="#822B2A" offset="62%"></stop>
            <stop stop-color="#5E0E0B" offset="81%"></stop>
            <stop stop-color="#510400" offset="87%"></stop>
            <stop stop-color="#540703" offset="91%"></stop>
            <stop stop-color="#5E0E0B" offset="94%"></stop>
            <stop stop-color="#6F1C1A" offset="96%"></stop>
            <stop stop-color="#872F2E" offset="99%"></stop>
            <stop stop-color="#903636" offset="99%"></stop>
        </radialGradient>
        <radialGradient cx="31.0739437%" cy="-7.83246475%" fx="31.0739437%" fy="-7.83246475%" r="120.904023%" gradientTransform="translate(0.310739,-0.078325),scale(0.578947,1.000000),translate(-0.310739,0.078325)" id="radialGradient-2">
            <stop stop-color="#7D2D29" offset="67%"></stop>
            <stop stop-color="#8D3434" offset="75%"></stop>
            <stop stop-color="#97393C" offset="83%"></stop>
            <stop stop-color="#9A3A3E" offset="93%"></stop>
            <stop stop-color="#9A3A3E" offset="100%"></stop>
        </radialGradient>
    </defs>
    <g id="Page-1" stroke="none" stroke-width="1" fill="none" fill-rule="evenodd">
        <g id="logo__footer" fill-rule="nonzero">
            <path d="M117.805514,18.6969965 L115.914504,6.12889652 C115.845431,5.76530305 115.633879,5.44434332 115.326868,5.2373531 C115.019857,5.03036288 114.642825,4.95449233 114.279569,5.02660427 C113.673621,5.10691507 113.16782,5.52811129 112.9795,6.10921273 C112.624935,6.84735487 109.49295,14.1598829 109.49295,14.1598829 L109.49295,14.1598829 C109.49295,14.1598829 106.252626,6.66035886 105.878364,5.90253294 C105.628866,5.31352802 105.021938,4.95812937 104.385764,5.028512 C103.749591,5.09889462 103.23516,5.57835401 103.120641,6.20763168 L101.219782,18.6969965 C101.150839,19.1005142 101.003104,19.9370753 101.003104,20.1339132 C100.984095,20.348697 101.052965,20.5620149 101.194002,20.7252026 C101.335038,20.8883904 101.536212,20.9875283 101.751629,21 C102.33272,21 102.510002,20.626008 102.588794,20.0158105 L104.558596,6.73909402 L104.558596,6.73909402 C104.558596,6.73909402 108.291371,15.4294874 108.4982,15.9018983 C108.654415,16.3187784 109.038867,16.6069088 109.483101,16.6400405 C109.877062,16.6400405 110.142985,16.3743093 110.359663,15.9018983 C110.576341,15.4294874 114.299267,6.73909402 114.299267,6.73909402 L114.299267,6.73909402 L116.269069,20.0158105 C116.35771,20.5866404 116.534992,21 117.106235,21 C117.582684,20.9946799 117.967623,20.6100187 117.972947,20.1339132 C118.071437,19.9370753 117.874457,19.1005142 117.805514,18.6969965 Z" id="Path" fill="#2B2A29"></path>
            <path d="M73.00592,19.5563417 L82.2749117,6.73839189 C82.5616874,6.45855642 82.6556122,6.02466667 82.5119039,5.64359639 C82.3681955,5.26252611 82.0159488,5.0114256 81.6231108,5.01001675 L72.037804,5.01001675 C71.756562,4.96166331 71.4744737,5.09106699 71.3187187,5.33988607 C71.1629636,5.58870515 71.1629636,5.9099383 71.3187187,6.15875738 C71.4744737,6.40757647 71.756562,6.53698014 72.037804,6.4886267 L80.4824593,6.4886267 L71.1847117,19.1866892 C70.966206,19.5326992 70.9397187,19.9734019 71.1150864,20.345129 C71.2904542,20.7168562 71.6414816,20.964081 72.037804,20.9949892 L82.1982293,20.9949892 C82.4731094,21.0282382 82.7418979,20.8940896 82.8893848,20.6500431 C83.0368717,20.4059967 83.0368717,20.0953811 82.8893848,19.8513347 C82.7418979,19.6072882 82.4731094,19.4731396 82.1982293,19.5063886 L73.00592,19.5563417 Z" id="Path" fill="#2B2A29"></path>
            <path d="M94,5.98582871 C94,5.31546519 93.6024096,5 92.9759036,5 C92.3493976,5 92,5.35489834 92,5.98582871 L92,20.0141713 C92,20.6845348 92.3493976,21 92.9759036,21 C93.6024096,21 94,20.6451017 94,20.0141713 L94,5.98582871 Z" id="Path" fill="#2B2A29"></path>
            <path d="M126.009852,14.5092251 C126.009852,18.1402214 128.876847,20 131.921182,20 C134.965517,20 138,18.1402214 138,14.5092251 L138,4.98400984 C138,4.31488315 137.635468,4 137.123153,4 C136.610837,4 136.246305,4.35424354 136.246305,4.98400984 L136.246305,14.3124231 C136.246305,16.6981846 134.309882,18.6322263 131.921182,18.6322263 C129.532483,18.6322263 127.596059,16.6981846 127.596059,14.3124231 L127.596059,4.98400984 C127.596059,4.31488315 127.310345,4 126.79803,4 C126.285714,4 126,4.35424354 126,4.98400984 L126,14.5092251 L126.009852,14.5092251 Z" id="Path" fill="#2B2A29"></path>
            <path d="M150.349657,19.0591655 C150.373922,19.3021281 150.292917,19.5438537 150.127019,19.7235406 C149.96112,19.9032275 149.726117,20.0037748 149.481119,20 C148.999646,20 148.725868,19.6706374 148.725868,19.0591655 L148.725868,6.38758551 L144.779681,6.38758551 C144.512454,6.41869814 144.251043,6.29413315 144.10759,6.06732708 C143.964137,5.840521 143.964137,5.55178271 144.10759,5.32497663 C144.251043,5.09817056 144.512454,4.97360557 144.779681,5.0047182 L154.220319,5.0047182 C154.487546,4.97360557 154.748957,5.09817056 154.89241,5.32497663 C155.035863,5.55178271 155.035863,5.840521 154.89241,6.06732708 C154.748957,6.29413315 154.487546,6.41869814 154.220319,6.38758551 L150.38742,6.38758551 L150.349657,19.0591655 Z" id="Path" fill="#2B2A29"></path>
            <path d="M63.9915088,10.1847214 C63.9915088,7.26361929 62.0482437,5 58.4337706,5 L54.7027016,5 C54.0419914,5 53.731069,5.20663745 53.731069,5.69505322 C53.731069,6.183469 54.0808567,6.38071384 54.7027016,6.38071384 L58.4629196,6.38071384 C61.3778172,6.38071384 62.4174641,8.07138384 62.4174641,10.2128992 L62.4174641,10.6637445 L55.6937668,10.6637445 C52.1084426,10.6637445 50,12.4671259 50,15.3600501 C50,18.2529743 52.030712,20 55.6160362,20 L63.0878905,20 C63.3570441,19.9840295 63.6072264,19.8606485 63.7785868,19.6593734 C63.9499471,19.4580983 64.0270712,19.1970342 63.9915088,18.9386349 L63.9915088,10.1847214 Z M62.4174641,18.6380714 L55.9658239,18.6380714 C53.0509262,18.6380714 51.5934774,17.4546024 51.5934774,15.3788353 C51.5934774,13.3030683 53.1675221,12.053851 56.0435545,12.053851 L62.4174641,12.053851 L62.4174641,18.6380714 Z" id="Shape" fill="#2B2A29"></path>
            <path d="M81.8033898,35.4912718 C81.8033898,35.8204489 81.6610169,36 81.3966102,36 C81.1322034,36 81,35.8204489 81,35.4912718 L81,28.5087282 C81,28.1795511 81.1423729,28 81.3966102,28 C81.6508475,28 81.8033898,28.1795511 81.8033898,28.5087282 L81.8033898,31.5012469 L86.1864407,31.5012469 L86.1864407,28.5087282 C86.1864407,28.1795511 86.3288136,28 86.5932203,28 C86.8576271,28 87,28.1795511 87,28.5087282 L87,35.4912718 C87,35.8204489 86.8576271,36 86.5932203,36 C86.3288136,36 86.1864407,35.8204489 86.1864407,35.4912718 L86.1864407,32.2693267 L81.8033898,32.2693267 L81.8033898,35.4912718 Z" id="Path" fill="#2B2A29"></path>
            <path d="M94,28 C96,28 97,30 97,32 C97,34 96,36 94,36 C92,36 91,34 91,32 C91,30 92,28 94,28 Z M96.1981982,32 C96.1981982,30.52 95.6306306,28.74 93.972973,28.74 C92.3153153,28.74 91.7747748,30.56 91.7747748,32 C91.7747748,33.44 92.3423423,35.27 94,35.27 C95.6576577,35.27 96.1981982,33.52 96.1981982,32 Z" id="Shape" fill="#2B2A29"></path>
            <path d="M101.925419,35.4858232 C101.925419,35.8185258 101.776523,36 101.5,36 C101.223477,36 101.074581,35.8185258 101.074581,35.4858232 L101.074581,28.7410327 L99.4579871,28.7410327 C99.3039644,28.7652824 99.1493856,28.7009183 99.0640224,28.5769923 C98.9786592,28.4530662 98.9786592,28.2930206 99.0640224,28.1690945 C99.1493856,28.0451685 99.3039644,27.9808044 99.4579871,28.0050541 L103.542013,28.0050541 C103.696036,27.9808044 103.850614,28.0451685 103.935978,28.1690945 C104.021341,28.2930206 104.021341,28.4530662 103.935978,28.5769923 C103.850614,28.7009183 103.696036,28.7652824 103.542013,28.7410327 L101.925419,28.7410327 L101.925419,35.4858232 Z" id="Path" fill="#2B2A29"></path>
            <path d="M106.870374,35.2509446 L109.525567,35.2509446 C109.68512,35.2264324 109.84525,35.2914933 109.933679,35.416761 C110.022107,35.5420287 110.022107,35.7038071 109.933679,35.8290748 C109.84525,35.9543425 109.68512,36.0194034 109.525567,35.9948912 L106.539852,35.9948912 C106.154244,35.9948912 106,35.8522165 106,35.5668671 L106,28.4331329 C106,28.1477835 106.143226,28.0051088 106.539852,28.0051088 L109.404376,28.0051088 C109.563929,27.9805966 109.724059,28.0456575 109.812487,28.1709252 C109.900916,28.2961929 109.900916,28.4579713 109.812487,28.583239 C109.724059,28.7085067 109.563929,28.7735676 109.404376,28.7490554 L106.881392,28.7490554 L106.881392,31.6535043 L109.316236,31.6535043 C109.47579,31.6289921 109.63592,31.694053 109.724348,31.8193207 C109.812777,31.9445884 109.812777,32.1063668 109.724348,32.2316345 C109.63592,32.3569022 109.47579,32.4219631 109.316236,32.3974509 L106.892409,32.3974509 L106.870374,35.2509446 Z" id="Path" fill="#2B2A29"></path>
            <path d="M114.727226,35.2570948 L116.608615,35.2570948 C116.740239,35.2327839 116.872339,35.2973106 116.945288,35.4215498 C117.018237,35.545789 117.018237,35.706239 116.945288,35.8304782 C116.872339,35.9547174 116.740239,36.0192441 116.608615,35.9949331 L114.363673,35.9949331 C114.266501,35.9977414 114.172555,35.9560486 114.10382,35.8796113 C114.035086,35.803174 113.997595,35.6987003 114.00012,35.5906382 L114.00012,28.5154761 C114.00012,28.1819327 114.127363,28 114.363673,28 C114.599983,28 114.727226,28.1819327 114.727226,28.5154761 L114.727226,35.2570948 Z" id="Path" fill="#2B2A29"></path>
            <path d="M119.000139,35.0901885 C118.997288,34.9870462 119.038335,34.8871841 119.113957,34.8132849 C119.18958,34.7393857 119.293359,34.6977223 119.401722,34.697758 C119.550421,34.7280922 119.688598,34.793875 119.803304,34.8889421 C120.217629,35.1340605 120.690088,35.2759374 121.177138,35.3014973 C122.202287,35.3241142 123.055453,34.5566501 123.089938,33.5808405 C123.089938,31.6891243 119.148091,32.4136113 119.148091,30.0187791 C119.177695,29.446095 119.449308,28.9091587 119.901143,28.5301134 C120.352978,28.151068 120.946616,27.9621429 121.547016,28.006315 C122.45586,28.006315 123.43868,28.4993687 123.43868,28.8716746 C123.452714,29.0766379 123.302409,29.2587824 123.089938,29.294292 C122.656651,29.294292 122.381885,28.7408644 121.494176,28.7408644 C120.752751,28.7220773 120.123591,29.2550614 120.056935,29.9584052 C120.056935,31.6991866 123.998782,30.9646372 123.998782,33.5204666 C124.020797,34.1956008 123.743608,34.8484275 123.234999,35.3193031 C122.726389,35.7901788 122.033253,36.0356894 121.325089,35.9957974 C119.940687,35.9957974 119.000139,35.5228683 119.000139,35.0901885 Z" id="Path" fill="#2B2A29"></path>
            <circle id="Oval" fill="url(#radialGradient-1)" cx="20" cy="20" r="20"></circle>
            <path d="M36.8556338,18 C33.5328638,31.7159818 12.6484742,33.5831994 5.88028169,23.0484034 C4.25639046,24.3688341 2.93193901,26.0408549 2,27.9469683 C5.79102019,36.5491342 14.7622932,41.376892 23.7535272,39.653307 C32.7447611,37.9297219 39.4448949,30.0978156 40,20.6625141 C39.2993671,19.4098105 38.1817173,18.4634327 36.8556338,18 Z" id="Path" fill="url(#radialGradient-2)"></path>
            <path d="M27.6697148,2.26415094 L27,2 L28.8835729,8.0754717 L29.5846806,8.38556194 C32.8145067,9.85259054 35.4478123,12.5590152 36.9934007,16 L36.9934007,16 C37.181758,9.94749795 33.3204335,4.63002461 27.6697148,2.26415094 Z" id="Path" fill="#A24E4F"></path>
            <path d="M31.2335244,26.7055506 C31.2335244,25.5776195 31.3005731,24.4496883 31.3005731,23.3217572 C31.3117479,11.0047492 28.6074499,1 25.2550143,1 C23.1876791,1 21.3773639,4.67705551 20.2598854,10.2490353 C20.2598191,10.3198385 20.2884264,10.3875927 20.3390718,10.4365818 C20.3897171,10.4855709 20.4579995,10.5115379 20.5280802,10.5084595 C20.6450922,10.5052049 20.7476867,10.4286649 20.7851003,10.3167112 C21.6008596,5.89522113 22.8524355,2.96260018 24.2269341,2.96260018 C26.6853868,2.96260018 28.6968481,11.9860493 28.6968481,23.062333 C28.6968481,24.3932918 28.6707736,25.682893 28.6186246,26.9311368 C26.6295129,27.0664886 24.4727794,27.1341644 22.2154728,27.1341644 C12.0352436,27.1341644 3.78825215,25.6791333 3.78825215,23.8857228 C3.78825215,22.0923123 12.0352436,20.6485604 22.2154728,20.6485604 C23.3329513,20.6485604 24.5286533,20.6485604 25.5679083,20.6485604 C25.6944274,20.6485604 25.7969914,20.545037 25.7969914,20.4173345 C25.7969914,20.289632 25.6944274,20.1861086 25.5679083,20.1861086 C24.3051576,20.1861086 22.8859599,20.1071535 21.5673352,20.1071535 C9.61031519,20.1409914 0,22.1148709 0,24.5512021 C0,26.9875334 9.61031519,28.9614129 21.5561605,28.9726922 C23.9922636,28.9726922 26.3277937,28.893737 28.5068768,28.747106 C28.3626177,32.2126156 27.8379188,35.6512772 26.9424069,39 C26.9424069,39 27.8028653,38.6503413 28.5292264,38.2781241 C29.0169898,38.0344665 29.4908026,37.7633356 29.9484241,37.4660137 C30.5802855,34.5206836 30.9837992,31.5301334 31.1553009,28.5215197 C33.5701668,28.3176365 35.9676153,27.9407091 38.3295129,27.3935886 C38.3295129,27.3935886 38.4859599,26.9649748 38.6535817,26.4235678 C38.8212034,25.8821609 39,25.2956367 39,25.2956367 C36.477085,26.0804601 33.8692605,26.5538805 31.2335244,26.7055506 Z" id="Path" fill="#FFFFFF"></path>
        </g>
    </g>
</svg>